<?xml version="1.0"?>
<svg xmlns:rdf="http://www.w3.org/1999/02/22-rdf-syntax-ns#" xmlns="http://www.w3.org/2000/svg" xmlns:cc="http://creativecommons.org/ns#" xmlns:xlink="http://www.w3.org/1999/xlink" xmlns:dc="http://purl.org/dc/elements/1.1/" xmlns:svg="http://www.w3.org/2000/svg" id="svg2" viewBox="0 0 1052.4 744.09" version="1.1">
  <defs id="defs4">
    <linearGradient id="linearGradient4038">
      <stop id="stop4040" stop-color="#fff" offset="0"/>
      <stop id="stop4042" stop-color="#fff" stop-opacity="0" offset="1"/>
    </linearGradient>
    <linearGradient id="linearGradient4030">
      <stop id="stop4032" stop-color="#ffe6d5" offset="0"/>
      <stop id="stop4034" stop-color="#ffe6d5" stop-opacity="0" offset="1"/>
    </linearGradient>
    <linearGradient id="linearGradient4662">
      <stop id="stop4664" stop-color="#003b00" offset="0"/>
      <stop id="stop4666" stop-color="#70bf00" offset="1"/>
    </linearGradient>
    <linearGradient id="linearGradient3888" y2="240.08" gradientUnits="userSpaceOnUse" x2="214.54" gradientTransform="matrix(.99940 0 0 1.1104 .10108 292.08)" y1="240.08" x1="124.03">
      <stop id="stop4722" stop-color="#22c200" offset="0"/>
      <stop id="stop4724" stop-color="#132b00" offset="1"/>
    </linearGradient>
    <linearGradient id="linearGradient3977" y2="824.16" xlink:href="#linearGradient4662" gradientUnits="userSpaceOnUse" x2="786.58" gradientTransform="matrix(.89933 0 0 1.2786 334.62 -107.15)" y1="816.87" x1="82.542"/>
    <linearGradient id="linearGradient3980" y2="824.16" xlink:href="#linearGradient4662" gradientUnits="userSpaceOnUse" x2="786.58" gradientTransform="matrix(.89938 0 0 1.219 24.339 -81.746)" y1="816.87" x1="82.542"/>
    <linearGradient id="linearGradient3983" y2="824.16" xlink:href="#linearGradient4662" gradientUnits="userSpaceOnUse" x2="786.58" gradientTransform="matrix(-.89928 0 0 1.3502 1022.3 -248.52)" y1="816.87" x1="82.542"/>
    <linearGradient id="linearGradient3986" y2="824.16" xlink:href="#linearGradient4662" gradientUnits="userSpaceOnUse" x2="786.58" gradientTransform="matrix(-.89931 0 0 1.3084 739.39 -237.58)" y1="816.87" x1="82.542"/>
    <linearGradient id="linearGradient3990" y2="824.16" xlink:href="#linearGradient4662" gradientUnits="userSpaceOnUse" x2="786.58" gradientTransform="matrix(.38713 0 0 .55040 66.717 554.88)" y1="816.87" x1="82.542"/>
    <radialGradient id="radialGradient4000" gradientUnits="userSpaceOnUse" cy="622.77" cx="527.52" gradientTransform="matrix(1 0 0 .22735 0 791.45)" r="525.72">
      <stop id="stop3994" stop-color="#00089e" offset="0"/>
      <stop id="stop3996" stop-color="#002b53" offset="1"/>
    </radialGradient>
    <radialGradient id="radialGradient4026" gradientUnits="userSpaceOnUse" cy="357.67" cx="1204.2" gradientTransform="matrix(1 0 0 .82432 0 62.834)" r="133">
      <stop id="stop4022" stop-color="#ffd42a" offset="0"/>
      <stop id="stop4024" stop-color="#ffd42a" stop-opacity="0" offset="1"/>
    </radialGradient>
    <linearGradient id="linearGradient4036" y2="1008" xlink:href="#linearGradient4030" gradientUnits="userSpaceOnUse" x2="608.9" gradientTransform="matrix(1.0018 0 0 .59767 -.96481 401.05)" y1="1008" x1="481.11"/>
    <linearGradient id="linearGradient4044" y2="1008" xlink:href="#linearGradient4038" gradientUnits="userSpaceOnUse" x2="609.4" gradientTransform="matrix(1.0018 0 0 .59767 -.96481 401.05)" y1="1008" x1="480.61"/>
    <linearGradient id="linearGradient4048" y2="1008" xlink:href="#linearGradient4030" gradientUnits="userSpaceOnUse" x2="608.9" gradientTransform="matrix(1.0018 0 0 .59767 126.65 420.82)" y1="1008" x1="481.11"/>
    <linearGradient id="linearGradient4050" y2="1008" xlink:href="#linearGradient4038" gradientUnits="userSpaceOnUse" x2="609.4" gradientTransform="matrix(1.0018 0 0 .59767 126.65 420.82)" y1="1008" x1="480.61"/>
    <linearGradient id="linearGradient4054" y2="1008" xlink:href="#linearGradient4030" gradientUnits="userSpaceOnUse" x2="608.9" gradientTransform="matrix(1.0018 0 0 .59767 234.49 399.25)" y1="1008" x1="481.11"/>
    <linearGradient id="linearGradient4056" y2="1008" xlink:href="#linearGradient4038" gradientUnits="userSpaceOnUse" x2="609.4" gradientTransform="matrix(1.0018 0 0 .59767 234.49 399.25)" y1="1008" x1="480.61"/>
    <linearGradient id="linearGradient4064" y2="1008" xlink:href="#linearGradient4030" gradientUnits="userSpaceOnUse" x2="608.9" gradientTransform="matrix(1.0018 0 0 .59767 338.73 429.8)" y1="1008" x1="481.11"/>
    <linearGradient id="linearGradient4066" y2="1008" xlink:href="#linearGradient4038" gradientUnits="userSpaceOnUse" x2="609.4" gradientTransform="matrix(1.0018 0 0 .59767 338.73 429.8)" y1="1008" x1="480.61"/>
    <linearGradient id="linearGradient4070" y2="1008" xlink:href="#linearGradient4030" gradientUnits="userSpaceOnUse" x2="608.9" gradientTransform="matrix(.81143 0 0 .48411 -360.94 481.36)" y1="1008" x1="481.11"/>
    <linearGradient id="linearGradient4072" y2="1008" xlink:href="#linearGradient4038" gradientUnits="userSpaceOnUse" x2="609.4" gradientTransform="matrix(.81143 0 0 .48411 -360.94 481.36)" y1="1008" x1="480.61"/>
    <linearGradient id="linearGradient4076" y2="1008" xlink:href="#linearGradient4030" gradientUnits="userSpaceOnUse" x2="608.9" gradientTransform="matrix(.65726 0 0 .39213 -296.69 502.18)" y1="1008" x1="481.11"/>
    <linearGradient id="linearGradient4078" y2="1008" xlink:href="#linearGradient4038" gradientUnits="userSpaceOnUse" x2="609.4" gradientTransform="matrix(.65726 0 0 .39213 -296.69 502.18)" y1="1008" x1="480.61"/>
    <linearGradient id="linearGradient4082" y2="1008" xlink:href="#linearGradient4030" gradientUnits="userSpaceOnUse" x2="608.9" gradientTransform="matrix(.53238 0 0 .31763 -244.8 517.97)" y1="1008" x1="481.11"/>
    <linearGradient id="linearGradient4084" y2="1008" xlink:href="#linearGradient4038" gradientUnits="userSpaceOnUse" x2="609.4" gradientTransform="matrix(.53238 0 0 .31763 -244.8 517.97)" y1="1008" x1="480.61"/>
    <linearGradient id="linearGradient4088" y2="1008" xlink:href="#linearGradient4030" gradientUnits="userSpaceOnUse" x2="608.9" gradientTransform="matrix(.65726 0 0 .39213 632.53 512.96)" y1="1008" x1="481.11"/>
    <linearGradient id="linearGradient4090" y2="1008" xlink:href="#linearGradient4038" gradientUnits="userSpaceOnUse" x2="609.4" gradientTransform="matrix(.65726 0 0 .39213 632.53 512.96)" y1="1008" x1="480.61"/>
    <linearGradient id="linearGradient4098" y2="1008" xlink:href="#linearGradient4030" gradientUnits="userSpaceOnUse" x2="608.9" gradientTransform="matrix(.53238 0 0 .31763 700.59 516.17)" y1="1008" x1="481.11"/>
    <linearGradient id="linearGradient4100" y2="1008" xlink:href="#linearGradient4038" gradientUnits="userSpaceOnUse" x2="609.4" gradientTransform="matrix(.53238 0 0 .31763 700.59 516.17)" y1="1008" x1="480.61"/>
    <linearGradient id="linearGradient4238" y2="500.82" gradientUnits="userSpaceOnUse" y1="500.82" x2="1418.4" x1="1126">
      <stop id="stop4197" stop-color="#668000" offset="0"/>
      <stop id="stop4199" stop-color="#668000" stop-opacity="0" offset="1"/>
    </linearGradient>
  </defs>
  <g id="layer1" transform="translate(0 -308.27)">
    <g id="g4302">
      <g id="g4102">
        <rect id="rect4002" ry="0" height="506.85" width="1051.4" y="307.72" x="1.7973" fill="#03a5db"/>
        <rect id="rect3024" ry="0" height="239.04" width="1051.4" y="813.52" x="1.7973" fill="url(#radialGradient4000)"/>
        <path id="path4682" d="m710.94 862.92c-262.76-226.75-470.78-168.19-655.93 9.51" fill="url(#linearGradient3986)"/>
        <path id="path4676" d="m993.87 887.09c-262.74-233.98-470.75-173.56-655.9 9.82" fill="url(#linearGradient3983)"/>
        <path id="path4652" d="m52.794 943.52c262.78-211.25 470.82-156.69 655.99 8.87" fill="url(#linearGradient3980)"/>
        <path id="path4670" d="m363.07 968.27c262.77-221.57 470.79-164.35 655.93 9.3" fill="url(#linearGradient3977)"/>
        <g id="g4728" stroke="#000" transform="matrix(.9 0 0 .9 109.31 238.79)">
          <rect id="rect4716" fill-rule="evenodd" ry="0" height="95.476" width="19.003" y="610.12" x="158.62" stroke-width=".20461px" fill="#500"/>
          <path id="path4718" d="m139.61 651.96c22.689 15.045 42.011 13.26 58.23-4.0436 38.428-23.227 0.0673-158.39-29.115-192.75-28.005 24.286-65.493 159.87-29.115 196.79z" stroke-width="1.0534px" fill="url(#linearGradient3888)"/>
        </g>
        <g id="g4758" fill="#aad400" transform="matrix(.72199 0 0 .59657 37.794 508.19)">
          <g id="g4742">
            <path id="path4734" d="m270.31 268.84c2.1581 1.8027 4.1113 3.7533 5.8599 5.9559 2.2431 2.8678 4.3116 5.8775 6.1749 9.0056 1.12 2.2964 2.7393 4.3068 4.1822 6.4072 1.3017 2.059 1.5422 4.4991 2.0109 6.8342 0.56515 2.6654 0.80721 5.3781 0.94466 8.0943 0.0979 2.4692 0.0928 4.941 0.0929 7.4117-0.002 2.0218-0.006 4.0437-0.008 6.0655l-15.91 8.1046c0.002-2.0218 0.005-4.0437 0.009-6.0656 0.004-2.4504 0.0154-4.9012-0.0429-7.351-0.0886-2.6303-0.2453-5.266-0.78466-7.8492-0.45245-2.0882-0.70838-4.2943-1.7488-6.1857-1.4299-2.1531-3.0028-4.2501-4.0949-6.5966-1.7553-3.0913-3.7696-6.0284-6.0222-8.7803-1.7711-2.1443-3.8221-3.9479-6.0349-5.6306l15.372-9.4201z" transform="translate(0 308.27)"/>
            <path id="path4736" d="m274.81 329.89c0.45402-4.1713 1.3344-8.2752 2.2101-12.373 0.79051-5.1352 2.7408-9.9778 4.6044-14.796 1.8361-4.1738 4.4853-7.9105 6.9508-11.725 1.0626-1.732 2.1604-3.4411 3.2027-5.1854l16.307-7.1651c-1.1892 1.7138-2.1947 3.5358-3.3525 5.2733-2.5257 3.7416-5.1452 7.45-7.2266 11.463-1.966 4.6859-3.9469 9.465-4.729 14.513-0.80132 3.9155-1.7408 7.8196-1.9312 11.826 0 0-16.035 8.1704-16.035 8.1704z" transform="translate(0 308.27)"/>
            <path id="path4738" d="m303.68 329.19c-4.2924-5.8189-10.139-10.258-15.709-14.779-3.8961-3.0565-8.0262-5.8198-11.546-9.3285-2.4783-2.6632-1.2586-1.414-3.6453-3.7613-2.271-2.483-4.4949-4.9116-7.0572-7.0946l15.079-9.4009c2.5804 2.2226 4.7216 4.7733 6.9161 7.3715 1.1625 1.2521 2.2427 2.5797 3.4224 3.8155 3.3702 3.5306 7.3986 6.331 11.157 9.4141 5.747 4.6697 11.598 9.2492 16.779 14.561l-15.397 9.2026z" transform="translate(0 308.27)"/>
            <path id="path4740" d="m286.95 338.38c0.36337-3.7024 1.1864-7.3152 2.173-10.894 1.6732-6.8857 5.8317-12.548 10.168-17.991 3.4759-4.4491 7.7113-8.1379 11.857-11.923 5.9483-4.9764 2.5267-2.2314 17.725-10.588 0.95621-0.52578 2.1295-0.49527 3.1613-0.85051 1.0143-0.34922 2.0038-0.76759 3.015-1.1259 1.6445-0.8871 0.829-0.4698 2.4444-1.2559l-13.944 11.109c-1.6004 0.74361-0.7705 0.38653-2.4928 1.0641-1.5204 0.54569-3.0908 0.98992-4.5988 1.5635-0.48589 0.1848-1.8717 0.89835-1.427 0.62904 17.04-10.321 17.923-10.982 12.474-7.2016-4.375 3.7392-8.8193 7.4129-12.496 11.884-4.3087 5.1327-8.4553 10.552-10.129 17.169-0.87068 3.3786-1.5916 6.7611-1.8958 10.242 0 0-16.035 8.1704-16.035 8.1704z" transform="translate(0 308.27)"/>
          </g>
          <g id="g4748" transform="matrix(-1 0 0 1 620.36 -6.0693)">
            <path id="path4750" d="m270.31 268.84c2.1581 1.8027 4.1113 3.7533 5.8599 5.9559 2.2431 2.8678 4.3116 5.8775 6.1749 9.0056 1.12 2.2964 2.7393 4.3068 4.1822 6.4072 1.3017 2.059 1.5422 4.4991 2.0109 6.8342 0.56515 2.6654 0.80721 5.3781 0.94466 8.0943 0.0979 2.4692 0.0928 4.941 0.0929 7.4117-0.002 2.0218-0.006 4.0437-0.008 6.0655l-15.91 8.1046c0.002-2.0218 0.005-4.0437 0.009-6.0656 0.004-2.4504 0.0154-4.9012-0.0429-7.351-0.0886-2.6303-0.2453-5.266-0.78466-7.8492-0.45245-2.0882-0.70838-4.2943-1.7488-6.1857-1.4299-2.1531-3.0028-4.2501-4.0949-6.5966-1.7553-3.0913-3.7696-6.0284-6.0222-8.7803-1.7711-2.1443-3.8221-3.9479-6.0349-5.6306l15.372-9.4201z" transform="translate(0 308.27)"/>
            <path id="path4752" d="m274.81 329.89c0.45402-4.1713 1.3344-8.2752 2.2101-12.373 0.79051-5.1352 2.7408-9.9778 4.6044-14.796 1.8361-4.1738 4.4853-7.9105 6.9508-11.725 1.0626-1.732 2.1604-3.4411 3.2027-5.1854l16.307-7.1651c-1.1892 1.7138-2.1947 3.5358-3.3525 5.2733-2.5257 3.7416-5.1452 7.45-7.2266 11.463-1.966 4.6859-3.9469 9.465-4.729 14.513-0.80132 3.9155-1.7408 7.8196-1.9312 11.826 0 0-16.035 8.1704-16.035 8.1704z" transform="translate(0 308.27)"/>
            <path id="path4754" d="m303.68 329.19c-4.2924-5.8189-10.139-10.258-15.709-14.779-3.8961-3.0565-8.0262-5.8198-11.546-9.3285-2.4783-2.6632-1.2586-1.414-3.6453-3.7613-2.271-2.483-4.4949-4.9116-7.0572-7.0946l15.079-9.4009c2.5804 2.2226 4.7216 4.7733 6.9161 7.3715 1.1625 1.2521 2.2427 2.5797 3.4224 3.8155 3.3702 3.5306 7.3986 6.331 11.157 9.4141 5.747 4.6697 11.598 9.2492 16.779 14.561l-15.397 9.2026z" transform="translate(0 308.27)"/>
            <path id="path4756" d="m286.95 338.38c0.36337-3.7024 1.1864-7.3152 2.173-10.894 1.6732-6.8857 5.8317-12.548 10.168-17.991 3.4759-4.4491 7.7113-8.1379 11.857-11.923 5.9483-4.9764 2.5267-2.2314 17.725-10.588 0.95621-0.52578 2.1295-0.49527 3.1613-0.85051 1.0143-0.34922 2.0038-0.76759 3.015-1.1259 1.6445-0.8871 0.829-0.4698 2.4444-1.2559l-13.944 11.109c-1.6004 0.74361-0.7705 0.38653-2.4928 1.0641-1.5204 0.54569-3.0908 0.98992-4.5988 1.5635-0.48589 0.1848-1.8717 0.89835-1.427 0.62904 17.04-10.321 17.923-10.982 12.474-7.2016-4.375 3.7392-8.8193 7.4129-12.496 11.884-4.3087 5.1327-8.4553 10.552-10.129 17.169-0.87068 3.3786-1.5916 6.7611-1.8958 10.242 0 0-16.035 8.1704-16.035 8.1704z" transform="translate(0 308.27)"/>
          </g>
        </g>
        <g id="g4809" stroke="#000" transform="matrix(.6561 0 0 .6561 231.44 361.16)">
          <rect id="rect4811" fill-rule="evenodd" ry="0" height="95.476" width="19.003" y="610.12" x="158.62" stroke-width=".20461px" fill="#500"/>
          <path id="path4813" d="m139.61 651.96c22.689 15.045 42.011 13.26 58.23-4.0436 38.428-23.227 0.0673-158.39-29.115-192.75-28.005 24.286-65.493 159.87-29.115 196.79z" stroke-width="1.0534px" fill="url(#linearGradient3888)"/>
        </g>
        <g id="g4815" fill="#aad400" transform="matrix(.52633 0 0 .43490 179.31 557.55)">
          <g id="g4817">
            <path id="path4819" d="m270.31 268.84c2.1581 1.8027 4.1113 3.7533 5.8599 5.9559 2.2431 2.8678 4.3116 5.8775 6.1749 9.0056 1.12 2.2964 2.7393 4.3068 4.1822 6.4072 1.3017 2.059 1.5422 4.4991 2.0109 6.8342 0.56515 2.6654 0.80721 5.3781 0.94466 8.0943 0.0979 2.4692 0.0928 4.941 0.0929 7.4117-0.002 2.0218-0.006 4.0437-0.008 6.0655l-15.91 8.1046c0.002-2.0218 0.005-4.0437 0.009-6.0656 0.004-2.4504 0.0154-4.9012-0.0429-7.351-0.0886-2.6303-0.2453-5.266-0.78466-7.8492-0.45245-2.0882-0.70838-4.2943-1.7488-6.1857-1.4299-2.1531-3.0028-4.2501-4.0949-6.5966-1.7553-3.0913-3.7696-6.0284-6.0222-8.7803-1.7711-2.1443-3.8221-3.9479-6.0349-5.6306l15.372-9.4201z" transform="translate(0 308.27)"/>
            <path id="path4821" d="m274.81 329.89c0.45402-4.1713 1.3344-8.2752 2.2101-12.373 0.79051-5.1352 2.7408-9.9778 4.6044-14.796 1.8361-4.1738 4.4853-7.9105 6.9508-11.725 1.0626-1.732 2.1604-3.4411 3.2027-5.1854l16.307-7.1651c-1.1892 1.7138-2.1947 3.5358-3.3525 5.2733-2.5257 3.7416-5.1452 7.45-7.2266 11.463-1.966 4.6859-3.9469 9.465-4.729 14.513-0.80132 3.9155-1.7408 7.8196-1.9312 11.826 0 0-16.035 8.1704-16.035 8.1704z" transform="translate(0 308.27)"/>
            <path id="path4823" d="m303.68 329.19c-4.2924-5.8189-10.139-10.258-15.709-14.779-3.8961-3.0565-8.0262-5.8198-11.546-9.3285-2.4783-2.6632-1.2586-1.414-3.6453-3.7613-2.271-2.483-4.4949-4.9116-7.0572-7.0946l15.079-9.4009c2.5804 2.2226 4.7216 4.7733 6.9161 7.3715 1.1625 1.2521 2.2427 2.5797 3.4224 3.8155 3.3702 3.5306 7.3986 6.331 11.157 9.4141 5.747 4.6697 11.598 9.2492 16.779 14.561l-15.397 9.2026z" transform="translate(0 308.27)"/>
            <path id="path4825" d="m286.95 338.38c0.36337-3.7024 1.1864-7.3152 2.173-10.894 1.6732-6.8857 5.8317-12.548 10.168-17.991 3.4759-4.4491 7.7113-8.1379 11.857-11.923 5.9483-4.9764 2.5267-2.2314 17.725-10.588 0.95621-0.52578 2.1295-0.49527 3.1613-0.85051 1.0143-0.34922 2.0038-0.76759 3.015-1.1259 1.6445-0.8871 0.829-0.4698 2.4444-1.2559l-13.944 11.109c-1.6004 0.74361-0.7705 0.38653-2.4928 1.0641-1.5204 0.54569-3.0908 0.98992-4.5988 1.5635-0.48589 0.1848-1.8717 0.89835-1.427 0.62904 17.04-10.321 17.923-10.982 12.474-7.2016-4.375 3.7392-8.8193 7.4129-12.496 11.884-4.3087 5.1327-8.4553 10.552-10.129 17.169-0.87068 3.3786-1.5916 6.7611-1.8958 10.242 0 0-16.035 8.1704-16.035 8.1704z" transform="translate(0 308.27)"/>
          </g>
          <g id="g4827" transform="matrix(-1 0 0 1 620.36 -6.0693)">
            <path id="path4829" d="m270.31 268.84c2.1581 1.8027 4.1113 3.7533 5.8599 5.9559 2.2431 2.8678 4.3116 5.8775 6.1749 9.0056 1.12 2.2964 2.7393 4.3068 4.1822 6.4072 1.3017 2.059 1.5422 4.4991 2.0109 6.8342 0.56515 2.6654 0.80721 5.3781 0.94466 8.0943 0.0979 2.4692 0.0928 4.941 0.0929 7.4117-0.002 2.0218-0.006 4.0437-0.008 6.0655l-15.91 8.1046c0.002-2.0218 0.005-4.0437 0.009-6.0656 0.004-2.4504 0.0154-4.9012-0.0429-7.351-0.0886-2.6303-0.2453-5.266-0.78466-7.8492-0.45245-2.0882-0.70838-4.2943-1.7488-6.1857-1.4299-2.1531-3.0028-4.2501-4.0949-6.5966-1.7553-3.0913-3.7696-6.0284-6.0222-8.7803-1.7711-2.1443-3.8221-3.9479-6.0349-5.6306l15.372-9.4201z" transform="translate(0 308.27)"/>
            <path id="path4831" d="m274.81 329.89c0.45402-4.1713 1.3344-8.2752 2.2101-12.373 0.79051-5.1352 2.7408-9.9778 4.6044-14.796 1.8361-4.1738 4.4853-7.9105 6.9508-11.725 1.0626-1.732 2.1604-3.4411 3.2027-5.1854l16.307-7.1651c-1.1892 1.7138-2.1947 3.5358-3.3525 5.2733-2.5257 3.7416-5.1452 7.45-7.2266 11.463-1.966 4.6859-3.9469 9.465-4.729 14.513-0.80132 3.9155-1.7408 7.8196-1.9312 11.826 0 0-16.035 8.1704-16.035 8.1704z" transform="translate(0 308.27)"/>
            <path id="path4833" d="m303.68 329.19c-4.2924-5.8189-10.139-10.258-15.709-14.779-3.8961-3.0565-8.0262-5.8198-11.546-9.3285-2.4783-2.6632-1.2586-1.414-3.6453-3.7613-2.271-2.483-4.4949-4.9116-7.0572-7.0946l15.079-9.4009c2.5804 2.2226 4.7216 4.7733 6.9161 7.3715 1.1625 1.2521 2.2427 2.5797 3.4224 3.8155 3.3702 3.5306 7.3986 6.331 11.157 9.4141 5.747 4.6697 11.598 9.2492 16.779 14.561l-15.397 9.2026z" transform="translate(0 308.27)"/>
            <path id="path4835" d="m286.95 338.38c0.36337-3.7024 1.1864-7.3152 2.173-10.894 1.6732-6.8857 5.8317-12.548 10.168-17.991 3.4759-4.4491 7.7113-8.1379 11.857-11.923 5.9483-4.9764 2.5267-2.2314 17.725-10.588 0.95621-0.52578 2.1295-0.49527 3.1613-0.85051 1.0143-0.34922 2.0038-0.76759 3.015-1.1259 1.6445-0.8871 0.829-0.4698 2.4444-1.2559l-13.944 11.109c-1.6004 0.74361-0.7705 0.38653-2.4928 1.0641-1.5204 0.54569-3.0908 0.98992-4.5988 1.5635-0.48589 0.1848-1.8717 0.89835-1.427 0.62904 17.04-10.321 17.923-10.982 12.474-7.2016-4.375 3.7392-8.8193 7.4129-12.496 11.884-4.3087 5.1327-8.4553 10.552-10.129 17.169-0.87068 3.3786-1.5916 6.7611-1.8958 10.242 0 0-16.035 8.1704-16.035 8.1704z" transform="translate(0 308.27)"/>
          </g>
        </g>
        <g id="g4841" stroke="#000" transform="matrix(.43047 0 0 .43047 336.54 487.25)">
          <rect id="rect4843" fill-rule="evenodd" ry="0" height="95.476" width="19.003" y="610.12" x="158.62" stroke-width=".20461px" fill="#500"/>
          <path id="path4845" d="m139.61 651.96c22.689 15.045 42.011 13.26 58.23-4.0436 38.428-23.227 0.0673-158.39-29.115-192.75-28.005 24.286-65.493 159.87-29.115 196.79z" stroke-width="1.0534px" fill="url(#linearGradient3888)"/>
        </g>
        <g id="g4847" fill="#aad400" transform="matrix(.34533 0 0 .28534 302.33 616.1)">
          <g id="g4849">
            <path id="path4851" d="m270.31 268.84c2.1581 1.8027 4.1113 3.7533 5.8599 5.9559 2.2431 2.8678 4.3116 5.8775 6.1749 9.0056 1.12 2.2964 2.7393 4.3068 4.1822 6.4072 1.3017 2.059 1.5422 4.4991 2.0109 6.8342 0.56515 2.6654 0.80721 5.3781 0.94466 8.0943 0.0979 2.4692 0.0928 4.941 0.0929 7.4117-0.002 2.0218-0.006 4.0437-0.008 6.0655l-15.91 8.1046c0.002-2.0218 0.005-4.0437 0.009-6.0656 0.004-2.4504 0.0154-4.9012-0.0429-7.351-0.0886-2.6303-0.2453-5.266-0.78466-7.8492-0.45245-2.0882-0.70838-4.2943-1.7488-6.1857-1.4299-2.1531-3.0028-4.2501-4.0949-6.5966-1.7553-3.0913-3.7696-6.0284-6.0222-8.7803-1.7711-2.1443-3.8221-3.9479-6.0349-5.6306l15.372-9.4201z" transform="translate(0 308.27)"/>
            <path id="path4853" d="m274.81 329.89c0.45402-4.1713 1.3344-8.2752 2.2101-12.373 0.79051-5.1352 2.7408-9.9778 4.6044-14.796 1.8361-4.1738 4.4853-7.9105 6.9508-11.725 1.0626-1.732 2.1604-3.4411 3.2027-5.1854l16.307-7.1651c-1.1892 1.7138-2.1947 3.5358-3.3525 5.2733-2.5257 3.7416-5.1452 7.45-7.2266 11.463-1.966 4.6859-3.9469 9.465-4.729 14.513-0.80132 3.9155-1.7408 7.8196-1.9312 11.826 0 0-16.035 8.1704-16.035 8.1704z" transform="translate(0 308.27)"/>
            <path id="path4855" d="m303.68 329.19c-4.2924-5.8189-10.139-10.258-15.709-14.779-3.8961-3.0565-8.0262-5.8198-11.546-9.3285-2.4783-2.6632-1.2586-1.414-3.6453-3.7613-2.271-2.483-4.4949-4.9116-7.0572-7.0946l15.079-9.4009c2.5804 2.2226 4.7216 4.7733 6.9161 7.3715 1.1625 1.2521 2.2427 2.5797 3.4224 3.8155 3.3702 3.5306 7.3986 6.331 11.157 9.4141 5.747 4.6697 11.598 9.2492 16.779 14.561l-15.397 9.2026z" transform="translate(0 308.27)"/>
            <path id="path4857" d="m286.95 338.38c0.36337-3.7024 1.1864-7.3152 2.173-10.894 1.6732-6.8857 5.8317-12.548 10.168-17.991 3.4759-4.4491 7.7113-8.1379 11.857-11.923 5.9483-4.9764 2.5267-2.2314 17.725-10.588 0.95621-0.52578 2.1295-0.49527 3.1613-0.85051 1.0143-0.34922 2.0038-0.76759 3.015-1.1259 1.6445-0.8871 0.829-0.4698 2.4444-1.2559l-13.944 11.109c-1.6004 0.74361-0.7705 0.38653-2.4928 1.0641-1.5204 0.54569-3.0908 0.98992-4.5988 1.5635-0.48589 0.1848-1.8717 0.89835-1.427 0.62904 17.04-10.321 17.923-10.982 12.474-7.2016-4.375 3.7392-8.8193 7.4129-12.496 11.884-4.3087 5.1327-8.4553 10.552-10.129 17.169-0.87068 3.3786-1.5916 6.7611-1.8958 10.242 0 0-16.035 8.1704-16.035 8.1704z" transform="translate(0 308.27)"/>
          </g>
          <g id="g4859" transform="matrix(-1 0 0 1 620.36 -6.0693)">
            <path id="path4861" d="m270.31 268.84c2.1581 1.8027 4.1113 3.7533 5.8599 5.9559 2.2431 2.8678 4.3116 5.8775 6.1749 9.0056 1.12 2.2964 2.7393 4.3068 4.1822 6.4072 1.3017 2.059 1.5422 4.4991 2.0109 6.8342 0.56515 2.6654 0.80721 5.3781 0.94466 8.0943 0.0979 2.4692 0.0928 4.941 0.0929 7.4117-0.002 2.0218-0.006 4.0437-0.008 6.0655l-15.91 8.1046c0.002-2.0218 0.005-4.0437 0.009-6.0656 0.004-2.4504 0.0154-4.9012-0.0429-7.351-0.0886-2.6303-0.2453-5.266-0.78466-7.8492-0.45245-2.0882-0.70838-4.2943-1.7488-6.1857-1.4299-2.1531-3.0028-4.2501-4.0949-6.5966-1.7553-3.0913-3.7696-6.0284-6.0222-8.7803-1.7711-2.1443-3.8221-3.9479-6.0349-5.6306l15.372-9.4201z" transform="translate(0 308.27)"/>
            <path id="path4863" d="m274.81 329.89c0.45402-4.1713 1.3344-8.2752 2.2101-12.373 0.79051-5.1352 2.7408-9.9778 4.6044-14.796 1.8361-4.1738 4.4853-7.9105 6.9508-11.725 1.0626-1.732 2.1604-3.4411 3.2027-5.1854l16.307-7.1651c-1.1892 1.7138-2.1947 3.5358-3.3525 5.2733-2.5257 3.7416-5.1452 7.45-7.2266 11.463-1.966 4.6859-3.9469 9.465-4.729 14.513-0.80132 3.9155-1.7408 7.8196-1.9312 11.826 0 0-16.035 8.1704-16.035 8.1704z" transform="translate(0 308.27)"/>
            <path id="path4865" d="m303.68 329.19c-4.2924-5.8189-10.139-10.258-15.709-14.779-3.8961-3.0565-8.0262-5.8198-11.546-9.3285-2.4783-2.6632-1.2586-1.414-3.6453-3.7613-2.271-2.483-4.4949-4.9116-7.0572-7.0946l15.079-9.4009c2.5804 2.2226 4.7216 4.7733 6.9161 7.3715 1.1625 1.2521 2.2427 2.5797 3.4224 3.8155 3.3702 3.5306 7.3986 6.331 11.157 9.4141 5.747 4.6697 11.598 9.2492 16.779 14.561l-15.397 9.2026z" transform="translate(0 308.27)"/>
            <path id="path4867" d="m286.95 338.38c0.36337-3.7024 1.1864-7.3152 2.173-10.894 1.6732-6.8857 5.8317-12.548 10.168-17.991 3.4759-4.4491 7.7113-8.1379 11.857-11.923 5.9483-4.9764 2.5267-2.2314 17.725-10.588 0.95621-0.52578 2.1295-0.49527 3.1613-0.85051 1.0143-0.34922 2.0038-0.76759 3.015-1.1259 1.6445-0.8871 0.829-0.4698 2.4444-1.2559l-13.944 11.109c-1.6004 0.74361-0.7705 0.38653-2.4928 1.0641-1.5204 0.54569-3.0908 0.98992-4.5988 1.5635-0.48589 0.1848-1.8717 0.89835-1.427 0.62904 17.04-10.321 17.923-10.982 12.474-7.2016-4.375 3.7392-8.8193 7.4129-12.496 11.884-4.3087 5.1327-8.4553 10.552-10.129 17.169-0.87068 3.3786-1.5916 6.7611-1.8958 10.242 0 0-16.035 8.1704-16.035 8.1704z" transform="translate(0 308.27)"/>
          </g>
        </g>
        <g id="g4873" stroke="#000" transform="matrix(.25419 0 0 .25419 413.81 595.21)">
          <rect id="rect4875" fill-rule="evenodd" ry="0" height="95.476" width="19.003" y="610.12" x="158.62" stroke-width=".20461px" fill="#500"/>
          <path id="path4877" d="m139.61 651.96c22.689 15.045 42.011 13.26 58.23-4.0436 38.428-23.227 0.0673-158.39-29.115-192.75-28.005 24.286-65.493 159.87-29.115 196.79z" stroke-width="1.0534px" fill="url(#linearGradient3888)"/>
        </g>
        <g id="g4879" fill="#aad400" transform="matrix(.20391 0 0 .16849 393.61 671.3)">
          <g id="g4881">
            <path id="path4883" d="m270.31 268.84c2.1581 1.8027 4.1113 3.7533 5.8599 5.9559 2.2431 2.8678 4.3116 5.8775 6.1749 9.0056 1.12 2.2964 2.7393 4.3068 4.1822 6.4072 1.3017 2.059 1.5422 4.4991 2.0109 6.8342 0.56515 2.6654 0.80721 5.3781 0.94466 8.0943 0.0979 2.4692 0.0928 4.941 0.0929 7.4117-0.002 2.0218-0.006 4.0437-0.008 6.0655l-15.91 8.1046c0.002-2.0218 0.005-4.0437 0.009-6.0656 0.004-2.4504 0.0154-4.9012-0.0429-7.351-0.0886-2.6303-0.2453-5.266-0.78466-7.8492-0.45245-2.0882-0.70838-4.2943-1.7488-6.1857-1.4299-2.1531-3.0028-4.2501-4.0949-6.5966-1.7553-3.0913-3.7696-6.0284-6.0222-8.7803-1.7711-2.1443-3.8221-3.9479-6.0349-5.6306l15.372-9.4201z" transform="translate(0 308.27)"/>
            <path id="path4885" d="m274.81 329.89c0.45402-4.1713 1.3344-8.2752 2.2101-12.373 0.79051-5.1352 2.7408-9.9778 4.6044-14.796 1.8361-4.1738 4.4853-7.9105 6.9508-11.725 1.0626-1.732 2.1604-3.4411 3.2027-5.1854l16.307-7.1651c-1.1892 1.7138-2.1947 3.5358-3.3525 5.2733-2.5257 3.7416-5.1452 7.45-7.2266 11.463-1.966 4.6859-3.9469 9.465-4.729 14.513-0.80132 3.9155-1.7408 7.8196-1.9312 11.826 0 0-16.035 8.1704-16.035 8.1704z" transform="translate(0 308.27)"/>
            <path id="path4887" d="m303.68 329.19c-4.2924-5.8189-10.139-10.258-15.709-14.779-3.8961-3.0565-8.0262-5.8198-11.546-9.3285-2.4783-2.6632-1.2586-1.414-3.6453-3.7613-2.271-2.483-4.4949-4.9116-7.0572-7.0946l15.079-9.4009c2.5804 2.2226 4.7216 4.7733 6.9161 7.3715 1.1625 1.2521 2.2427 2.5797 3.4224 3.8155 3.3702 3.5306 7.3986 6.331 11.157 9.4141 5.747 4.6697 11.598 9.2492 16.779 14.561l-15.397 9.2026z" transform="translate(0 308.27)"/>
            <path id="path4889" d="m286.95 338.38c0.36337-3.7024 1.1864-7.3152 2.173-10.894 1.6732-6.8857 5.8317-12.548 10.168-17.991 3.4759-4.4491 7.7113-8.1379 11.857-11.923 5.9483-4.9764 2.5267-2.2314 17.725-10.588 0.95621-0.52578 2.1295-0.49527 3.1613-0.85051 1.0143-0.34922 2.0038-0.76759 3.015-1.1259 1.6445-0.8871 0.829-0.4698 2.4444-1.2559l-13.944 11.109c-1.6004 0.74361-0.7705 0.38653-2.4928 1.0641-1.5204 0.54569-3.0908 0.98992-4.5988 1.5635-0.48589 0.1848-1.8717 0.89835-1.427 0.62904 17.04-10.321 17.923-10.982 12.474-7.2016-4.375 3.7392-8.8193 7.4129-12.496 11.884-4.3087 5.1327-8.4553 10.552-10.129 17.169-0.87068 3.3786-1.5916 6.7611-1.8958 10.242 0 0-16.035 8.1704-16.035 8.1704z" transform="translate(0 308.27)"/>
          </g>
          <g id="g4891" transform="matrix(-1 0 0 1 620.36 -6.0693)">
            <path id="path4893" d="m270.31 268.84c2.1581 1.8027 4.1113 3.7533 5.8599 5.9559 2.2431 2.8678 4.3116 5.8775 6.1749 9.0056 1.12 2.2964 2.7393 4.3068 4.1822 6.4072 1.3017 2.059 1.5422 4.4991 2.0109 6.8342 0.56515 2.6654 0.80721 5.3781 0.94466 8.0943 0.0979 2.4692 0.0928 4.941 0.0929 7.4117-0.002 2.0218-0.006 4.0437-0.008 6.0655l-15.91 8.1046c0.002-2.0218 0.005-4.0437 0.009-6.0656 0.004-2.4504 0.0154-4.9012-0.0429-7.351-0.0886-2.6303-0.2453-5.266-0.78466-7.8492-0.45245-2.0882-0.70838-4.2943-1.7488-6.1857-1.4299-2.1531-3.0028-4.2501-4.0949-6.5966-1.7553-3.0913-3.7696-6.0284-6.0222-8.7803-1.7711-2.1443-3.8221-3.9479-6.0349-5.6306l15.372-9.4201z" transform="translate(0 308.27)"/>
            <path id="path4895" d="m274.81 329.89c0.45402-4.1713 1.3344-8.2752 2.2101-12.373 0.79051-5.1352 2.7408-9.9778 4.6044-14.796 1.8361-4.1738 4.4853-7.9105 6.9508-11.725 1.0626-1.732 2.1604-3.4411 3.2027-5.1854l16.307-7.1651c-1.1892 1.7138-2.1947 3.5358-3.3525 5.2733-2.5257 3.7416-5.1452 7.45-7.2266 11.463-1.966 4.6859-3.9469 9.465-4.729 14.513-0.80132 3.9155-1.7408 7.8196-1.9312 11.826 0 0-16.035 8.1704-16.035 8.1704z" transform="translate(0 308.27)"/>
            <path id="path4897" d="m303.68 329.19c-4.2924-5.8189-10.139-10.258-15.709-14.779-3.8961-3.0565-8.0262-5.8198-11.546-9.3285-2.4783-2.6632-1.2586-1.414-3.6453-3.7613-2.271-2.483-4.4949-4.9116-7.0572-7.0946l15.079-9.4009c2.5804 2.2226 4.7216 4.7733 6.9161 7.3715 1.1625 1.2521 2.2427 2.5797 3.4224 3.8155 3.3702 3.5306 7.3986 6.331 11.157 9.4141 5.747 4.6697 11.598 9.2492 16.779 14.561l-15.397 9.2026z" transform="translate(0 308.27)"/>
            <path id="path4899" d="m286.95 338.38c0.36337-3.7024 1.1864-7.3152 2.173-10.894 1.6732-6.8857 5.8317-12.548 10.168-17.991 3.4759-4.4491 7.7113-8.1379 11.857-11.923 5.9483-4.9764 2.5267-2.2314 17.725-10.588 0.95621-0.52578 2.1295-0.49527 3.1613-0.85051 1.0143-0.34922 2.0038-0.76759 3.015-1.1259 1.6445-0.8871 0.829-0.4698 2.4444-1.2559l-13.944 11.109c-1.6004 0.74361-0.7705 0.38653-2.4928 1.0641-1.5204 0.54569-3.0908 0.98992-4.5988 1.5635-0.48589 0.1848-1.8717 0.89835-1.427 0.62904 17.04-10.321 17.923-10.982 12.474-7.2016-4.375 3.7392-8.8193 7.4129-12.496 11.884-4.3087 5.1327-8.4553 10.552-10.129 17.169-0.87068 3.3786-1.5916 6.7611-1.8958 10.242 0 0-16.035 8.1704-16.035 8.1704z" transform="translate(0 308.27)"/>
          </g>
        </g>
        <g id="g2894" stroke="#000" transform="matrix(.16677 0 0 .16677 469.72 645.87)">
          <rect id="rect2896" fill-rule="evenodd" ry="0" height="95.476" width="19.003" y="610.12" x="158.62" stroke-width=".20461px" fill="#500"/>
          <path id="path2898" d="m139.61 651.96c22.689 15.045 42.011 13.26 58.23-4.0436 38.428-23.227 0.0673-158.39-29.115-192.75-28.005 24.286-65.493 159.87-29.115 196.79z" stroke-width="1.0534px" fill="url(#linearGradient3888)"/>
        </g>
        <g id="g2900" fill="#aad400" transform="matrix(.13379 0 0 .11055 456.47 695.79)">
          <g id="g2902">
            <path id="path2904" d="m270.31 268.84c2.1581 1.8027 4.1113 3.7533 5.8599 5.9559 2.2431 2.8678 4.3116 5.8775 6.1749 9.0056 1.12 2.2964 2.7393 4.3068 4.1822 6.4072 1.3017 2.059 1.5422 4.4991 2.0109 6.8342 0.56515 2.6654 0.80721 5.3781 0.94466 8.0943 0.0979 2.4692 0.0928 4.941 0.0929 7.4117-0.002 2.0218-0.006 4.0437-0.008 6.0655l-15.91 8.1046c0.002-2.0218 0.005-4.0437 0.009-6.0656 0.004-2.4504 0.0154-4.9012-0.0429-7.351-0.0886-2.6303-0.2453-5.266-0.78466-7.8492-0.45245-2.0882-0.70838-4.2943-1.7488-6.1857-1.4299-2.1531-3.0028-4.2501-4.0949-6.5966-1.7553-3.0913-3.7696-6.0284-6.0222-8.7803-1.7711-2.1443-3.8221-3.9479-6.0349-5.6306l15.372-9.4201z" transform="translate(0 308.27)"/>
            <path id="path2906" d="m274.81 329.89c0.45402-4.1713 1.3344-8.2752 2.2101-12.373 0.79051-5.1352 2.7408-9.9778 4.6044-14.796 1.8361-4.1738 4.4853-7.9105 6.9508-11.725 1.0626-1.732 2.1604-3.4411 3.2027-5.1854l16.307-7.1651c-1.1892 1.7138-2.1947 3.5358-3.3525 5.2733-2.5257 3.7416-5.1452 7.45-7.2266 11.463-1.966 4.6859-3.9469 9.465-4.729 14.513-0.80132 3.9155-1.7408 7.8196-1.9312 11.826 0 0-16.035 8.1704-16.035 8.1704z" transform="translate(0 308.27)"/>
            <path id="path2908" d="m303.68 329.19c-4.2924-5.8189-10.139-10.258-15.709-14.779-3.8961-3.0565-8.0262-5.8198-11.546-9.3285-2.4783-2.6632-1.2586-1.414-3.6453-3.7613-2.271-2.483-4.4949-4.9116-7.0572-7.0946l15.079-9.4009c2.5804 2.2226 4.7216 4.7733 6.9161 7.3715 1.1625 1.2521 2.2427 2.5797 3.4224 3.8155 3.3702 3.5306 7.3986 6.331 11.157 9.4141 5.747 4.6697 11.598 9.2492 16.779 14.561l-15.397 9.2026z" transform="translate(0 308.27)"/>
            <path id="path2910" d="m286.95 338.38c0.36337-3.7024 1.1864-7.3152 2.173-10.894 1.6732-6.8857 5.8317-12.548 10.168-17.991 3.4759-4.4491 7.7113-8.1379 11.857-11.923 5.9483-4.9764 2.5267-2.2314 17.725-10.588 0.95621-0.52578 2.1295-0.49527 3.1613-0.85051 1.0143-0.34922 2.0038-0.76759 3.015-1.1259 1.6445-0.8871 0.829-0.4698 2.4444-1.2559l-13.944 11.109c-1.6004 0.74361-0.7705 0.38653-2.4928 1.0641-1.5204 0.54569-3.0908 0.98992-4.5988 1.5635-0.48589 0.1848-1.8717 0.89835-1.427 0.62904 17.04-10.321 17.923-10.982 12.474-7.2016-4.375 3.7392-8.8193 7.4129-12.496 11.884-4.3087 5.1327-8.4553 10.552-10.129 17.169-0.87068 3.3786-1.5916 6.7611-1.8958 10.242 0 0-16.035 8.1704-16.035 8.1704z" transform="translate(0 308.27)"/>
          </g>
          <g id="g2912" transform="matrix(-1 0 0 1 620.36 -6.0693)">
            <path id="path2914" d="m270.31 268.84c2.1581 1.8027 4.1113 3.7533 5.8599 5.9559 2.2431 2.8678 4.3116 5.8775 6.1749 9.0056 1.12 2.2964 2.7393 4.3068 4.1822 6.4072 1.3017 2.059 1.5422 4.4991 2.0109 6.8342 0.56515 2.6654 0.80721 5.3781 0.94466 8.0943 0.0979 2.4692 0.0928 4.941 0.0929 7.4117-0.002 2.0218-0.006 4.0437-0.008 6.0655l-15.91 8.1046c0.002-2.0218 0.005-4.0437 0.009-6.0656 0.004-2.4504 0.0154-4.9012-0.0429-7.351-0.0886-2.6303-0.2453-5.266-0.78466-7.8492-0.45245-2.0882-0.70838-4.2943-1.7488-6.1857-1.4299-2.1531-3.0028-4.2501-4.0949-6.5966-1.7553-3.0913-3.7696-6.0284-6.0222-8.7803-1.7711-2.1443-3.8221-3.9479-6.0349-5.6306l15.372-9.4201z" transform="translate(0 308.27)"/>
            <path id="path2916" d="m274.81 329.89c0.45402-4.1713 1.3344-8.2752 2.2101-12.373 0.79051-5.1352 2.7408-9.9778 4.6044-14.796 1.8361-4.1738 4.4853-7.9105 6.9508-11.725 1.0626-1.732 2.1604-3.4411 3.2027-5.1854l16.307-7.1651c-1.1892 1.7138-2.1947 3.5358-3.3525 5.2733-2.5257 3.7416-5.1452 7.45-7.2266 11.463-1.966 4.6859-3.9469 9.465-4.729 14.513-0.80132 3.9155-1.7408 7.8196-1.9312 11.826 0 0-16.035 8.1704-16.035 8.1704z" transform="translate(0 308.27)"/>
            <path id="path2918" d="m303.68 329.19c-4.2924-5.8189-10.139-10.258-15.709-14.779-3.8961-3.0565-8.0262-5.8198-11.546-9.3285-2.4783-2.6632-1.2586-1.414-3.6453-3.7613-2.271-2.483-4.4949-4.9116-7.0572-7.0946l15.079-9.4009c2.5804 2.2226 4.7216 4.7733 6.9161 7.3715 1.1625 1.2521 2.2427 2.5797 3.4224 3.8155 3.3702 3.5306 7.3986 6.331 11.157 9.4141 5.747 4.6697 11.598 9.2492 16.779 14.561l-15.397 9.2026z" transform="translate(0 308.27)"/>
            <path id="path2920" d="m286.95 338.38c0.36337-3.7024 1.1864-7.3152 2.173-10.894 1.6732-6.8857 5.8317-12.548 10.168-17.991 3.4759-4.4491 7.7113-8.1379 11.857-11.923 5.9483-4.9764 2.5267-2.2314 17.725-10.588 0.95621-0.52578 2.1295-0.49527 3.1613-0.85051 1.0143-0.34922 2.0038-0.76759 3.015-1.1259 1.6445-0.8871 0.829-0.4698 2.4444-1.2559l-13.944 11.109c-1.6004 0.74361-0.7705 0.38653-2.4928 1.0641-1.5204 0.54569-3.0908 0.98992-4.5988 1.5635-0.48589 0.1848-1.8717 0.89835-1.427 0.62904 17.04-10.321 17.923-10.982 12.474-7.2016-4.375 3.7392-8.8193 7.4129-12.496 11.884-4.3087 5.1327-8.4553 10.552-10.129 17.169-0.87068 3.3786-1.5916 6.7611-1.8958 10.242 0 0-16.035 8.1704-16.035 8.1704z" transform="translate(0 308.27)"/>
          </g>
        </g>
        <path id="path3988" d="m78.965 1017.8c113.12-95.37 202.66-70.74 282.36 4" fill="url(#linearGradient3990)"/>
        <path id="path4018" d="m1208.6 467.25a133 109.64 0 1 1 0.12 -0.003l-4.5019-109.57z" fill="url(#radialGradient4026)" transform="matrix(1 0 0 1.0738 -337.9 70.696)"/>
        <path id="path4028" stroke-linejoin="round" d="m497.63 997.85c3.46-0.28128 6.9571-0.3873 10.449-0.47717 3.9865-0.60553 7.4647-0.44659 11.463-0.0465 5.3976 1.0231 10.549 2.4045 15.74 3.7011 3.8297 0.8903 7.641 1.7462 11.753 2.1555 2.8562 0.2292 5.7506 0.2181 8.6305 0.2175 2.7972-0.01 5.5943-0.016 8.3916-0.02 3.0612-0.079 6.1888 0.1911 9.2022-0.1484 6.469-1.0079 20.239-5.6733-13.477 4.4229-0.76194 0.2281 1.3272-0.613 1.9258-0.9552 5.8687-3.9619 14.863-6.0377 23.542-7.9196 2.6495-0.50928 5.4595-0.62194 8.2443-0.69692 2.8297-0.0533 5.6618-0.0429 8.4927-0.0394 2.3445 0.004 4.689 0.006 7.0335 0.008 0 0-16.76 6.5866-16.76 6.5866v0c-2.344 0-4.688-0.01-7.032-0.01-2.8022 0-5.6084-0.01-8.4049 0.1056-2.7026 0.1391-5.3836 0.3758-7.8806 0.9844-7.2553 1.5822-0.50025 0.1446 15.563-4.9967 0.33081-0.1059-0.72791 0.1383-1.0678 0.2353-1.1351 0.3241-1.9334 0.837-2.5995 1.4189-0.30703 0.1755-0.63641 0.3403-0.92111 0.5266-0.30364 0.1986-0.4349 0.4901-0.84023 0.6255-6.9085 2.3087-13.952 5.8145-22.427 6.396-3.1138 0.063-6.2322 0.015-9.3476 0.045-2.8014 0.01-5.6029 0.019-8.4044 0.01-2.9566-0.024-5.931-0.07-8.8262-0.43-4.0991-0.5677-7.9381-1.506-11.794-2.4373-5.0394-1.297-10.067-2.7434-15.548-3.4012-3.9802-0.3016-7.3152-0.049-11.255 0.2581-3.5136 0.1089-7.0396 0.2514-10.475 0.6906l16.628-6.8123z" stroke="url(#linearGradient4044)" stroke-linecap="round" stroke-width=".77377" fill="url(#linearGradient4036)"/>
        <path id="path4046" stroke-linejoin="round" d="m625.24 1017.6c3.46-0.2813 6.9571-0.3873 10.449-0.4772 3.9865-0.6055 7.4647-0.4466 11.463-0.047 5.3976 1.0231 10.549 2.4045 15.74 3.7011 3.8297 0.8903 7.641 1.7462 11.753 2.1555 2.8562 0.2292 5.7506 0.2181 8.6305 0.2175 2.7972-0.01 5.5943-0.016 8.3916-0.02 3.0612-0.079 6.1888 0.1911 9.2022-0.1484 6.469-1.0079 20.239-5.6733-13.477 4.4229-0.76194 0.2281 1.3272-0.613 1.9258-0.9552 5.8687-3.9619 14.863-6.0377 23.542-7.9196 2.6495-0.5093 5.4595-0.6219 8.2443-0.6969 2.8297-0.053 5.6618-0.043 8.4927-0.039 2.3445 0 4.689 0.01 7.0335 0.01 0 0-16.76 6.5866-16.76 6.5866v0c-2.344 0-4.688-0.01-7.032-0.01-2.8022 0-5.6084-0.01-8.4049 0.1056-2.7026 0.1391-5.3836 0.3758-7.8806 0.9844-7.2553 1.5822-0.50025 0.1446 15.563-4.9967 0.33081-0.1059-0.72791 0.1383-1.0678 0.2353-1.1351 0.3241-1.9334 0.837-2.5995 1.4189-0.30703 0.1755-0.63641 0.3403-0.92111 0.5266-0.30364 0.1986-0.4349 0.4901-0.84023 0.6255-6.9085 2.3087-13.952 5.8145-22.427 6.396-3.1138 0.063-6.2322 0.015-9.3476 0.045-2.8014 0.01-5.6029 0.019-8.4044 0.01-2.9566-0.024-5.931-0.07-8.8262-0.43-4.0991-0.5677-7.9381-1.506-11.794-2.4373-5.0394-1.297-10.067-2.7434-15.548-3.4012-3.9802-0.3016-7.3152-0.049-11.255 0.2581-3.5136 0.1089-7.0396 0.2514-10.475 0.6906l16.628-6.8123z" stroke="url(#linearGradient4050)" stroke-linecap="round" stroke-width=".77377" fill="url(#linearGradient4048)"/>
        <path id="path4052" stroke-linejoin="round" d="m733.08 996.05c3.46-0.2813 6.9571-0.3873 10.449-0.4772 3.9865-0.6055 7.4647-0.4466 11.463-0.047 5.3976 1.0231 10.549 2.4045 15.74 3.7011 3.8297 0.89026 7.641 1.7462 11.753 2.1555 2.8562 0.2292 5.7506 0.2181 8.6305 0.2175 2.7972-0.01 5.5943-0.016 8.3916-0.02 3.0612-0.079 6.1888 0.1911 9.2022-0.1484 6.469-1.0079 20.239-5.6733-13.477 4.4229-0.76194 0.2281 1.3272-0.613 1.9258-0.9552 5.8687-3.9619 14.863-6.0377 23.542-7.9196 2.6495-0.5093 5.4595-0.6219 8.2443-0.6969 2.8297-0.053 5.6618-0.043 8.4927-0.039 2.3445 0 4.689 0.01 7.0335 0.01 0 0-16.76 6.5866-16.76 6.5866v0c-2.344 0-4.688-0.01-7.032-0.01-2.8022 0-5.6084-0.01-8.4049 0.1056-2.7026 0.1391-5.3836 0.3758-7.8806 0.9844-7.2553 1.5822-0.50025 0.1446 15.563-4.9967 0.33081-0.1059-0.72791 0.1383-1.0678 0.2353-1.1351 0.3241-1.9334 0.837-2.5995 1.4189-0.30703 0.1755-0.63641 0.3403-0.92111 0.5266-0.30364 0.1986-0.4349 0.4901-0.84023 0.6255-6.9085 2.3087-13.952 5.8145-22.427 6.396-3.1138 0.063-6.2322 0.015-9.3476 0.045-2.8014 0.01-5.6029 0.019-8.4044 0.01-2.9566-0.024-5.931-0.07-8.8262-0.43-4.0991-0.5677-7.9381-1.506-11.794-2.4373-5.0394-1.297-10.067-2.7434-15.548-3.4012-3.9802-0.3016-7.3152-0.049-11.255 0.2581-3.5136 0.1089-7.0396 0.2514-10.475 0.6906l16.628-6.8123z" stroke="url(#linearGradient4056)" stroke-linecap="round" stroke-width=".77377" fill="url(#linearGradient4054)"/>
        <path id="path4058" stroke-linejoin="round" d="m837.32 1026.6c3.46-0.2813 6.9571-0.3873 10.449-0.4772 3.9865-0.6055 7.4647-0.4466 11.463-0.047 5.3976 1.0231 10.549 2.4045 15.74 3.7011 3.8297 0.8903 7.641 1.7462 11.753 2.1555 2.8562 0.2292 5.7506 0.2181 8.6305 0.2175 2.7972-0.01 5.5943-0.016 8.3916-0.02 3.0612-0.079 6.1888 0.1911 9.2022-0.1484 6.469-1.0079 20.239-5.6733-13.477 4.4229-0.76194 0.2281 1.3272-0.613 1.9258-0.9552 5.8687-3.9619 14.863-6.0377 23.542-7.9196 2.6495-0.5093 5.4595-0.6219 8.2443-0.6969 2.8297-0.053 5.6618-0.043 8.4927-0.039 2.3445 0 4.689 0.01 7.0335 0.01 0 0-16.76 6.5866-16.76 6.5866v0c-2.344 0-4.688-0.01-7.032-0.01-2.8022 0-5.6084-0.01-8.4049 0.1056-2.7026 0.1391-5.3836 0.3758-7.8806 0.9844-7.2553 1.5822-0.50025 0.1446 15.563-4.9967 0.33081-0.1059-0.72791 0.1383-1.0678 0.2353-1.1351 0.3241-1.9334 0.837-2.5995 1.4189-0.30703 0.1755-0.63641 0.3403-0.92111 0.5266-0.30364 0.1986-0.4349 0.4901-0.84023 0.6255-6.9085 2.3087-13.952 5.8145-22.427 6.396-3.1138 0.063-6.2322 0.015-9.3476 0.045-2.8014 0.01-5.6029 0.019-8.4044 0.01-2.9566-0.024-5.931-0.07-8.8262-0.43-4.0991-0.5677-7.9381-1.506-11.794-2.4373-5.0394-1.297-10.067-2.7434-15.548-3.4012-3.9802-0.3016-7.3152-0.049-11.255 0.2581-3.5136 0.1089-7.0396 0.2514-10.475 0.6906l16.628-6.8123z" stroke="url(#linearGradient4066)" stroke-linecap="round" stroke-width=".77377" fill="url(#linearGradient4064)"/>
        <path id="path4068" stroke-linejoin="round" d="m42.918 964.77c2.8026-0.22785 5.6352-0.31371 8.4634-0.38653 3.2291-0.49046 6.0464-0.36175 9.2853-0.0381 4.3721 0.82871 8.5443 1.9476 12.75 2.9979 3.102 0.72114 6.1893 1.4144 9.5201 1.746 2.3135 0.18566 4.658 0.17667 6.9907 0.17618 2.2657-0.008 4.5314-0.013 6.7972-0.0162 2.4796-0.064 5.013 0.15479 7.4538-0.1202 5.2399-0.8164 16.393-4.5954-10.917 3.5825-0.61717 0.18477 1.075-0.49653 1.5599-0.77371 4.7536-3.2091 12.039-4.8905 19.069-6.4149 2.1461-0.41254 4.4222-0.50374 6.6778-0.56449 2.2921-0.0429 4.586-0.0348 6.8791-0.0316 1.899 0 3.7981 0.008 5.6971 0.008l-13.575 5.3351v0c-1.8987 0-3.7973-0.008-5.6959-0.008-2.2698 0-4.5428-0.008-6.808 0.0855-2.1891 0.11267-4.3607 0.3044-6.3833 0.79737-5.8768 1.2816-0.40521 0.11712 12.606-4.0473 0.26796-0.0858-0.58961 0.11202-0.86495 0.19059-0.91944 0.26252-1.566 0.67797-2.1056 1.1493-0.2487 0.14216-0.5155 0.27565-0.7461 0.42655-0.24595 0.16086-0.35227 0.39698-0.68059 0.50665-5.5959 1.87-11.301 4.7098-18.166 5.1808-2.5222 0.051-5.0481 0.0121-7.5716 0.0364-2.2692 0.008-4.5384 0.0154-6.8075 0.008-2.3948-0.0194-4.8041-0.0567-7.1492-0.3483-3.3203-0.45983-6.4299-1.2199-9.5528-1.9742-4.0819-1.0506-8.1542-2.2222-12.594-2.755-3.2239-0.2443-5.9253-0.0397-9.1162 0.20906-2.846 0.0882-5.702 0.20363-8.4844 0.55939l13.468-5.518z" stroke="url(#linearGradient4072)" stroke-linecap="round" stroke-width=".62676" fill="url(#linearGradient4070)"/>
        <path id="path4074" stroke-linejoin="round" d="m30.44 893.74c2.2701-0.18456 4.5645-0.25411 6.8554-0.31309 2.6156-0.39727 4.8976-0.29302 7.5211-0.0309 3.5414 0.67125 6.9209 1.5776 10.327 2.4283 2.5127 0.58412 5.0133 1.1457 7.7113 1.4142 1.8739 0.15039 3.773 0.1431 5.6625 0.1427 1.8352-0.006 3.6704-0.0105 5.5057-0.0131 2.0085-0.0518 4.0605 0.12538 6.0376-0.0974 4.2443-0.66128 13.279-3.7222-8.8425 2.9019-0.49991 0.14966 0.87074-0.40219 1.2635-0.6267 3.8504-2.5994 9.7515-3.9613 15.446-5.196 1.7384-0.33416 3.582-0.40803 5.4091-0.45723 1.8566-0.0347 3.7147-0.0282 5.5721-0.0256 1.5382 0 3.0764 0.006 4.6147 0.006l-10.996 4.3215v0c-1.5379 0-3.0758-0.006-4.6137-0.006-1.8385 0-3.6797-0.006-5.5145 0.0693-1.7732 0.0913-3.5322 0.24656-5.1705 0.64587-4.7602 1.0381-0.32822 0.0949 10.211-3.2783 0.21705-0.0695-0.47758 0.0907-0.70061 0.15438-0.74475 0.21264-1.2685 0.54915-1.7055 0.93094-0.20145 0.11515-0.41756 0.22327-0.60434 0.3455-0.19922 0.1303-0.28534 0.32156-0.55128 0.41039-4.5327 1.5147-9.1542 3.8149-14.714 4.1964-2.043 0.0413-4.0889 0.01-6.133 0.0295-1.838 0.006-3.6761 0.0125-5.5141 0.006-1.9398-0.0157-3.8913-0.0459-5.7909-0.28213-2.6894-0.37245-5.2082-0.98808-7.7378-1.5991-3.3064-0.85096-6.6049-1.7999-10.201-2.2315-2.6114-0.19788-4.7995-0.0321-7.3841 0.16933-2.3053 0.0715-4.6187 0.16495-6.8724 0.45312l10.909-4.4696z" stroke="url(#linearGradient4078)" stroke-linecap="round" stroke-width=".50767" fill="url(#linearGradient4076)"/>
        <path id="path4080" stroke-linejoin="round" d="m20.17 835.13c1.8388-0.14949 3.6973-0.20583 5.5528-0.2536 2.1186-0.32179 3.9671-0.23735 6.0921-0.025 2.8685 0.54371 5.6059 1.2778 8.3651 1.9669 2.0352 0.47314 4.0608 0.928 6.2462 1.1455 1.5179 0.12181 3.0561 0.11591 4.5866 0.11558 1.4865-0.005 2.9731-0.008 4.4596-0.0106 1.6269-0.0419 3.289 0.10156 4.8904-0.0789 3.4379-0.53564 10.756-3.015-7.1624 2.3505-0.40493 0.12122 0.7053-0.32578 1.0235-0.50763 3.1189-2.1055 7.8987-3.2087 12.511-4.2088 1.4081-0.27066 2.9014-0.33049 4.3813-0.37035 1.5038-0.0281 3.0089-0.0229 4.5134-0.0207 1.246 0 2.4919 0.005 3.7379 0.005l-8.9068 3.5004v0c-1.2457 0-2.4914-0.005-3.7371-0.005-1.4892 0-2.9805-0.005-4.4667 0.0562-1.4363 0.074-2.8611 0.19972-4.1881 0.52316-3.8558 0.84085-0.26586 0.0769 8.2708-2.6554 0.17581-0.0563-0.38684 0.0734-0.56749 0.12504-0.60324 0.17224-1.0275 0.44482-1.3815 0.75407-0.16317 0.0933-0.33822 0.18084-0.48952 0.27985-0.16137 0.10554-0.23112 0.26046-0.44654 0.33242-3.6714 1.2269-7.4149 3.0901-11.919 3.3991-1.6548 0.0335-3.312 0.008-4.9677 0.0239-1.4888 0.005-2.9776 0.0102-4.4664 0.005-1.5712-0.0127-3.152-0.0372-4.6906-0.22853-2.1784-0.30169-4.2186-0.80034-6.2676-1.2953-2.6781-0.68927-5.35-1.458-8.2627-1.8075-2.1152-0.16028-3.8876-0.026-5.9811 0.13716-1.8673 0.0579-3.7411 0.1336-5.5666 0.36703l8.8366-3.6204z" stroke="url(#linearGradient4084)" stroke-linecap="round" stroke-width=".41122" fill="url(#linearGradient4082)"/>
        <path id="path4086" stroke-linejoin="round" d="m959.66 904.53c2.2701-0.18456 4.5645-0.2541 6.8554-0.31309 2.6156-0.39727 4.8976-0.29301 7.5211-0.0309 3.5414 0.67126 6.9209 1.5776 10.327 2.4283 2.5127 0.58413 5.0133 1.1457 7.7113 1.4142 1.8739 0.15039 3.773 0.1431 5.6625 0.14271 1.8352-0.006 3.6704-0.0105 5.5057-0.0131 2.0084-0.0518 4.0606 0.12538 6.0376-0.0974 4.2442-0.66129 13.278-3.7223-8.8426 2.9018-0.49988 0.14967 0.8708-0.40218 1.2635-0.6267 3.8505-2.5994 9.7515-3.9613 15.446-5.196 1.7383-0.33415 3.582-0.40802 5.4091-0.45724 1.8565-0.0347 3.7147-0.0282 5.5721-0.0256 1.5381 0 3.0763 0.006 4.6146 0.006l-10.996 4.3215v0c-1.5379 0-3.0757-0.006-4.6137-0.006-1.8385 0-3.6796-0.006-5.5144 0.0692-1.7731 0.0913-3.5323 0.24657-5.1705 0.64587-4.7602 1.0381-0.3283 0.0949 10.211-3.2783 0.217-0.0695-0.4775 0.0907-0.7005 0.15438-0.7449 0.21264-1.2686 0.54916-1.7056 0.93094-0.2015 0.11515-0.4175 0.22328-0.6044 0.34551-0.1992 0.13029-0.2853 0.32155-0.5512 0.41038-4.5327 1.5147-9.1542 3.8149-14.714 4.1964-2.0431 0.0413-4.089 0.01-6.1331 0.0295-1.8379 0.006-3.676 0.0125-5.5141 0.006-1.9398-0.0158-3.8913-0.0459-5.7909-0.28212-2.6894-0.37247-5.2082-0.98809-7.7378-1.5991-3.3064-0.85096-6.6049-1.8-10.201-2.2315-2.6114-0.19788-4.7995-0.0321-7.3841 0.16934-2.3052 0.0715-4.6186 0.16494-6.8724 0.4531l10.909-4.4696z" stroke="url(#linearGradient4090)" stroke-linecap="round" stroke-width=".50767" fill="url(#linearGradient4088)"/>
        <path id="path4092" stroke-linejoin="round" d="m965.57 833.34c1.8388-0.14949 3.6973-0.20582 5.5528-0.2536 2.1186-0.32179 3.9671-0.23734 6.0921-0.025 2.8685 0.54372 5.6059 1.2778 8.3651 1.9669 2.0353 0.47315 4.0608 0.928 6.2462 1.1455 1.5179 0.12182 3.0561 0.11591 4.5866 0.1156 1.4865-0.004 2.973-0.008 4.4596-0.0106 1.6268-0.0419 3.2891 0.10155 4.8905-0.0789 3.4378-0.53565 10.756-3.015-7.1625 2.3505-0.40491 0.12124 0.70534-0.32576 1.0234-0.50763 3.1189-2.1055 7.8987-3.2087 12.511-4.2088 1.4081-0.27067 2.9015-0.3305 4.3814-0.37037 1.5038-0.0281 3.0089-0.0229 4.5134-0.0207 1.2459 0 2.4919 0.005 3.7378 0.005l-8.9067 3.5004v0c-1.2458 0-2.4914-0.005-3.7372-0.005-1.4891 0-2.9804-0.005-4.4666 0.0561-1.4362 0.074-2.8612 0.19972-4.1882 0.52315-3.8558 0.84084-0.2659 0.0769 8.2708-2.6555 0.1757-0.0562-0.3868 0.0734-0.5674 0.12506-0.6034 0.17223-1.0276 0.44481-1.3816 0.75405-0.1632 0.0933-0.3381 0.18086-0.4895 0.27987-0.1614 0.10553-0.2311 0.26046-0.4465 0.3324-3.6714 1.2269-7.4149 3.0901-11.919 3.3991-1.6549 0.0335-3.3121 0.008-4.9678 0.0238-1.4887 0.005-2.9776 0.0102-4.4664 0.005-1.5712-0.0128-3.152-0.0372-4.6906-0.22852-2.1785-0.30169-4.2186-0.80035-6.2676-1.2953-2.6782-0.68927-5.35-1.458-8.2627-1.8075-2.1152-0.16029-3.8876-0.026-5.9811 0.13716-1.8672 0.0579-3.7411 0.13361-5.5666 0.36701l8.8366-3.6203z" stroke="url(#linearGradient4100)" stroke-linecap="round" stroke-width=".41122" fill="url(#linearGradient4098)"/>
      </g>
      <g id="g4282" transform="matrix(.28243 0 0 .28243 496.23 716.41)">
        <path id="path4284" d="m1258.1 235.45c-18.824 122.66-47.674 96.621-79.082 197.71 25.762 9.9601 51.523 3.8086 77.285 0 44.579-41.634 29.639-127.48 37.744-197.71h-35.947z" transform="translate(0 308.27)" stroke="#a40" stroke-width="1px" fill="#a40"/>
        <g id="g4286">
          <path id="path4288" d="m1207.8 452.05c-36.609 8.6554-66.082 20.879-64.704 48.528-15.168 16.775-15.386 33.55-1.7974 50.325 21.799 25.773 56.129 35.882 97.056 37.744 35.947 6.1996 71.893-7.3815 107.84-19.771 40.456-4.6352 58.154-20.649 70.096-39.541 13.467-22.167 6.6079-44.334-3.5947-66.501-43.034-12.063-65.349-18.476-55.717-16.176-28.19-15.512-59.963-23.86-102.45-10.784-16.307 4.8075-51.834-5.76-46.731 16.176z" stroke="#cf0" stroke-width="1px" fill="#aad400"/>
          <path id="path4290" d="m1202.4 443.07c-36.609 8.6554-66.082 20.879-64.704 48.528-15.168 16.775-15.386 33.55-1.7974 50.325 21.799 25.773 56.129 35.882 97.056 37.744 35.947 6.1996 71.893-7.3815 107.84-19.771 40.456-4.6352 58.154-20.649 70.096-39.541 13.467-22.167 6.6079-44.334-3.5947-66.501-43.034-12.063-65.349-18.476-55.717-16.176-28.19-15.512-59.963-23.86-102.45-10.784-16.307 4.8075-51.834-5.76-46.731 16.176z" fill="url(#linearGradient4238)"/>
        </g>
        <g id="g4292" transform="matrix(.43960 0 0 .33502 652.58 586.91)">
          <path id="path4294" d="m1207.8 452.05c-36.609 8.6554-66.082 20.879-64.704 48.528-15.168 16.775-15.386 33.55-1.7974 50.325 21.799 25.773 56.129 35.882 97.056 37.744 35.947 6.1996 71.893-7.3815 107.84-19.771 40.456-4.6352 58.154-20.649 70.096-39.541 13.467-22.167 6.6079-44.334-3.5947-66.501-43.034-12.063-65.349-18.476-55.717-16.176-28.19-15.512-59.963-23.86-102.45-10.784-16.307 4.8075-51.834-5.76-46.731 16.176z" stroke="#cf0" stroke-width="1px" fill="#aad400"/>
          <path id="path4296" d="m1202.4 443.07c-36.609 8.6554-66.082 20.879-64.704 48.528-15.168 16.775-15.386 33.55-1.7974 50.325 21.799 25.773 56.129 35.882 97.056 37.744 35.947 6.1996 71.893-7.3815 107.84-19.771 40.456-4.6352 58.154-20.649 70.096-39.541 13.467-22.167 6.6079-44.334-3.5947-66.501-43.034-12.063-65.349-18.476-55.717-16.176-28.19-15.512-59.963-23.86-102.45-10.784-16.307 4.8075-51.834-5.76-46.731 16.176z" fill="url(#linearGradient4238)"/>
        </g>
      </g>
      <g id="g4262" transform="matrix(.34868 0 0 .34868 345.25 676.48)">
        <path id="path4264" d="m1258.1 235.45c-18.824 122.66-47.674 96.621-79.082 197.71 25.762 9.9601 51.523 3.8086 77.285 0 44.579-41.634 29.639-127.48 37.744-197.71h-35.947z" transform="translate(0 308.27)" stroke="#a40" stroke-width="1px" fill="#a40"/>
        <g id="g4266">
          <path id="path4268" d="m1207.8 452.05c-36.609 8.6554-66.082 20.879-64.704 48.528-15.168 16.775-15.386 33.55-1.7974 50.325 21.799 25.773 56.129 35.882 97.056 37.744 35.947 6.1996 71.893-7.3815 107.84-19.771 40.456-4.6352 58.154-20.649 70.096-39.541 13.467-22.167 6.6079-44.334-3.5947-66.501-43.034-12.063-65.349-18.476-55.717-16.176-28.19-15.512-59.963-23.86-102.45-10.784-16.307 4.8075-51.834-5.76-46.731 16.176z" stroke="#cf0" stroke-width="1px" fill="#aad400"/>
          <path id="path4270" d="m1202.4 443.07c-36.609 8.6554-66.082 20.879-64.704 48.528-15.168 16.775-15.386 33.55-1.7974 50.325 21.799 25.773 56.129 35.882 97.056 37.744 35.947 6.1996 71.893-7.3815 107.84-19.771 40.456-4.6352 58.154-20.649 70.096-39.541 13.467-22.167 6.6079-44.334-3.5947-66.501-43.034-12.063-65.349-18.476-55.717-16.176-28.19-15.512-59.963-23.86-102.45-10.784-16.307 4.8075-51.834-5.76-46.731 16.176z" fill="url(#linearGradient4238)"/>
        </g>
        <g id="g4272" transform="matrix(.43960 0 0 .33502 652.58 586.91)">
          <path id="path4274" d="m1207.8 452.05c-36.609 8.6554-66.082 20.879-64.704 48.528-15.168 16.775-15.386 33.55-1.7974 50.325 21.799 25.773 56.129 35.882 97.056 37.744 35.947 6.1996 71.893-7.3815 107.84-19.771 40.456-4.6352 58.154-20.649 70.096-39.541 13.467-22.167 6.6079-44.334-3.5947-66.501-43.034-12.063-65.349-18.476-55.717-16.176-28.19-15.512-59.963-23.86-102.45-10.784-16.307 4.8075-51.834-5.76-46.731 16.176z" stroke="#cf0" stroke-width="1px" fill="#aad400"/>
          <path id="path4276" d="m1202.4 443.07c-36.609 8.6554-66.082 20.879-64.704 48.528-15.168 16.775-15.386 33.55-1.7974 50.325 21.799 25.773 56.129 35.882 97.056 37.744 35.947 6.1996 71.893-7.3815 107.84-19.771 40.456-4.6352 58.154-20.649 70.096-39.541 13.467-22.167 6.6079-44.334-3.5947-66.501-43.034-12.063-65.349-18.476-55.717-16.176-28.19-15.512-59.963-23.86-102.45-10.784-16.307 4.8075-51.834-5.76-46.731 16.176z" fill="url(#linearGradient4238)"/>
        </g>
      </g>
      <g id="g4242" transform="matrix(.34868 0 0 .34868 305.71 644.13)">
        <path id="path4244" d="m1258.1 235.45c-18.824 122.66-47.674 96.621-79.082 197.71 25.762 9.9601 51.523 3.8086 77.285 0 44.579-41.634 29.639-127.48 37.744-197.71h-35.947z" transform="translate(0 308.27)" stroke="#a40" stroke-width="1px" fill="#a40"/>
        <g id="g4246">
          <path id="path4248" d="m1207.8 452.05c-36.609 8.6554-66.082 20.879-64.704 48.528-15.168 16.775-15.386 33.55-1.7974 50.325 21.799 25.773 56.129 35.882 97.056 37.744 35.947 6.1996 71.893-7.3815 107.84-19.771 40.456-4.6352 58.154-20.649 70.096-39.541 13.467-22.167 6.6079-44.334-3.5947-66.501-43.034-12.063-65.349-18.476-55.717-16.176-28.19-15.512-59.963-23.86-102.45-10.784-16.307 4.8075-51.834-5.76-46.731 16.176z" stroke="#cf0" stroke-width="1px" fill="#aad400"/>
          <path id="path4250" d="m1202.4 443.07c-36.609 8.6554-66.082 20.879-64.704 48.528-15.168 16.775-15.386 33.55-1.7974 50.325 21.799 25.773 56.129 35.882 97.056 37.744 35.947 6.1996 71.893-7.3815 107.84-19.771 40.456-4.6352 58.154-20.649 70.096-39.541 13.467-22.167 6.6079-44.334-3.5947-66.501-43.034-12.063-65.349-18.476-55.717-16.176-28.19-15.512-59.963-23.86-102.45-10.784-16.307 4.8075-51.834-5.76-46.731 16.176z" fill="url(#linearGradient4238)"/>
        </g>
        <g id="g4252" transform="matrix(.43960 0 0 .33502 652.58 586.91)">
          <path id="path4254" d="m1207.8 452.05c-36.609 8.6554-66.082 20.879-64.704 48.528-15.168 16.775-15.386 33.55-1.7974 50.325 21.799 25.773 56.129 35.882 97.056 37.744 35.947 6.1996 71.893-7.3815 107.84-19.771 40.456-4.6352 58.154-20.649 70.096-39.541 13.467-22.167 6.6079-44.334-3.5947-66.501-43.034-12.063-65.349-18.476-55.717-16.176-28.19-15.512-59.963-23.86-102.45-10.784-16.307 4.8075-51.834-5.76-46.731 16.176z" stroke="#cf0" stroke-width="1px" fill="#aad400"/>
          <path id="path4256" d="m1202.4 443.07c-36.609 8.6554-66.082 20.879-64.704 48.528-15.168 16.775-15.386 33.55-1.7974 50.325 21.799 25.773 56.129 35.882 97.056 37.744 35.947 6.1996 71.893-7.3815 107.84-19.771 40.456-4.6352 58.154-20.649 70.096-39.541 13.467-22.167 6.6079-44.334-3.5947-66.501-43.034-12.063-65.349-18.476-55.717-16.176-28.19-15.512-59.963-23.86-102.45-10.784-16.307 4.8075-51.834-5.76-46.731 16.176z" fill="url(#linearGradient4238)"/>
        </g>
      </g>
      <g id="g4229" transform="matrix(.47830 0 0 .47830 64.942 560.63)">
        <path id="path4219" d="m1258.1 235.45c-18.824 122.66-47.674 96.621-79.082 197.71 25.762 9.9601 51.523 3.8086 77.285 0 44.579-41.634 29.639-127.48 37.744-197.71h-35.947z" transform="translate(0 308.27)" stroke="#a40" stroke-width="1px" fill="#a40"/>
        <g id="g4213">
          <path id="path4191" d="m1207.8 452.05c-36.609 8.6554-66.082 20.879-64.704 48.528-15.168 16.775-15.386 33.55-1.7974 50.325 21.799 25.773 56.129 35.882 97.056 37.744 35.947 6.1996 71.893-7.3815 107.84-19.771 40.456-4.6352 58.154-20.649 70.096-39.541 13.467-22.167 6.6079-44.334-3.5947-66.501-43.034-12.063-65.349-18.476-55.717-16.176-28.19-15.512-59.963-23.86-102.45-10.784-16.307 4.8075-51.834-5.76-46.731 16.176z" stroke="#cf0" stroke-width="1px" fill="#aad400"/>
          <path id="path4193" d="m1202.4 443.07c-36.609 8.6554-66.082 20.879-64.704 48.528-15.168 16.775-15.386 33.55-1.7974 50.325 21.799 25.773 56.129 35.882 97.056 37.744 35.947 6.1996 71.893-7.3815 107.84-19.771 40.456-4.6352 58.154-20.649 70.096-39.541 13.467-22.167 6.6079-44.334-3.5947-66.501-43.034-12.063-65.349-18.476-55.717-16.176-28.19-15.512-59.963-23.86-102.45-10.784-16.307 4.8075-51.834-5.76-46.731 16.176z" fill="url(#linearGradient4238)"/>
        </g>
        <g id="g4221" transform="matrix(.43960 0 0 .33502 652.58 586.91)">
          <path id="path4223" d="m1207.8 452.05c-36.609 8.6554-66.082 20.879-64.704 48.528-15.168 16.775-15.386 33.55-1.7974 50.325 21.799 25.773 56.129 35.882 97.056 37.744 35.947 6.1996 71.893-7.3815 107.84-19.771 40.456-4.6352 58.154-20.649 70.096-39.541 13.467-22.167 6.6079-44.334-3.5947-66.501-43.034-12.063-65.349-18.476-55.717-16.176-28.19-15.512-59.963-23.86-102.45-10.784-16.307 4.8075-51.834-5.76-46.731 16.176z" stroke="#cf0" stroke-width="1px" fill="#aad400"/>
          <path id="path4225" d="m1202.4 443.07c-36.609 8.6554-66.082 20.879-64.704 48.528-15.168 16.775-15.386 33.55-1.7974 50.325 21.799 25.773 56.129 35.882 97.056 37.744 35.947 6.1996 71.893-7.3815 107.84-19.771 40.456-4.6352 58.154-20.649 70.096-39.541 13.467-22.167 6.6079-44.334-3.5947-66.501-43.034-12.063-65.349-18.476-55.717-16.176-28.19-15.512-59.963-23.86-102.45-10.784-16.307 4.8075-51.834-5.76-46.731 16.176z" fill="url(#linearGradient4238)"/>
        </g>
      </g>
    </g>
  </g>
  <metadata>
    <rdf:RDF>
      <cc:Work>
        <dc:format>image/svg+xml</dc:format>
        <dc:type rdf:resource="http://purl.org/dc/dcmitype/StillImage"/>
        <cc:license rdf:resource="http://creativecommons.org/licenses/publicdomain/"/>
        <dc:publisher>
          <cc:Agent rdf:about="http://openclipart.org/">
            <dc:title>Openclipart</dc:title>
          </cc:Agent>
        </dc:publisher>
        <dc:title>Elba's Island - Tuscany - Italy</dc:title>
        <dc:date>2011-05-12T18:31:01</dc:date>
        <dc:description>albero, clip art, clipart, d'elba, elba, island, isola, italia, italy, mare, sea, toscana, tuscany, wood, </dc:description>
        <dc:source>http://openclipart.org/detail/138349/elbas-island---tuscany---italy-by-dordy</dc:source>
        <dc:creator>
          <cc:Agent>
            <dc:title>dordy</dc:title>
          </cc:Agent>
        </dc:creator>
        <dc:subject>
          <rdf:Bag>
            <rdf:li>albero</rdf:li>
            <rdf:li>clip art</rdf:li>
            <rdf:li>clipart</rdf:li>
            <rdf:li>d'elba</rdf:li>
            <rdf:li>elba</rdf:li>
            <rdf:li>island</rdf:li>
            <rdf:li>isola</rdf:li>
            <rdf:li>italia</rdf:li>
            <rdf:li>italy</rdf:li>
            <rdf:li>mare</rdf:li>
            <rdf:li>sea</rdf:li>
            <rdf:li>toscana</rdf:li>
            <rdf:li>tuscany</rdf:li>
            <rdf:li>wood</rdf:li>
          </rdf:Bag>
        </dc:subject>
      </cc:Work>
      <cc:License rdf:about="http://creativecommons.org/licenses/publicdomain/">
        <cc:permits rdf:resource="http://creativecommons.org/ns#Reproduction"/>
        <cc:permits rdf:resource="http://creativecommons.org/ns#Distribution"/>
        <cc:permits rdf:resource="http://creativecommons.org/ns#DerivativeWorks"/>
      </cc:License>
    </rdf:RDF>
  </metadata>
</svg>
