<?xml version="1.0" encoding="utf-8"?>
<!-- Generator: Adobe Illustrator 23.0.3, SVG Export Plug-In . SVG Version: 6.00 Build 0)  -->
<svg version="1.1" id="Capa_1" xmlns="http://www.w3.org/2000/svg" xmlns:xlink="http://www.w3.org/1999/xlink" x="0px" y="0px"
	 viewBox="0 0 1200 1200" enable-background="new 0 0 1200 1200" xml:space="preserve">
<path fill="#1A1A1A" d="M290.307,104.95c-11.576-5.787-18.125-8.485-22.016-9.653c0.348-6.22,17.575-0.054,19.936,1.047
	c18.062,8.429,68.606,48.142,73.42,92.668c4.814,44.526,4.814,36.102,22.865,60.171c18.051,24.068,27.678,52.95,42.12,90.256
	c7.781,20.099,23.871,35.459,31.68,55.304c9.551,24.272-5.909,47.327-3.175,72.126c2.267,20.564,15.68,37.55,21.6,56.91
	c13.817,45.185-1.471,93.023,9.055,138.684c9.482,41.134,33.87,80.421,29.406,123.922c-1.781,17.362-8.269,33.887-11.388,51.059
	c-3.119,17.172-2.305,36.437,8.734,49.955c7.974,9.766,20.057,15.134,29.645,23.307c0.064,13.52,0.791,26.698,2.092,38.845
	c-11.286-11.595-31.141-31.302-47.237-43.61c-20.382-15.587-37.211-54.07-25.999-101.726c11.071-47.051,1.908-99.594-11.292-128.499
	c-11.682-25.579-25.789-74.441-25.789-96.753c0-23.028-0.476-30.181-6.43-68.386c-3.075-19.721-1.659-30.587-0.29-41.096
	c1.267-9.731,2.578-19.792,0.299-36.021c-4.184-29.803-14.215-50.512-24.835-72.436c-1.394-2.876-2.796-5.768-4.19-8.698
	c-11.834-24.862-25.167-76.501-25.167-89.095c0-14.447-19.464-50.346-21.682-54.39l-0.468,0.257
	c-0.599-4.465-1.448-8.871-2.58-13.204C337.689,154.049,313.709,116.651,290.307,104.95z M560.229,745.669
	c-0.299-2.365-0.614-4.737-0.929-7.116c-2.389-18.009-4.862-36.635-0.835-55.068c1.175-5.368,2.824-10.519,4.643-15.545
	c-5.369-6.219-20.686-26.398-20.973-54.681c-0.16-15.675-2.047-32.585-5.609-50.259c-1.062-5.273-2.55-10.683-3.988-15.917
	c-2.984-10.852-6.068-22.073-5.993-33.781c0.08-12.438,2.782-24.517,5.396-36.196c2.47-11.04,5.022-22.456,5.221-33.856
	c0.326-18.618-3.952-35.867-8.482-54.129c-1.485-5.986-3.023-12.178-4.383-18.42c-6.635-30.432-20.946-54.865-36.096-80.731
	c-6.878-11.745-13.994-23.889-20.388-36.718c-5.188-10.41-9.602-21.338-13.872-31.906c-2.649-6.563-5.398-13.321-8.282-19.874
	c-9.214-5.511-17.749-11.84-25.458-18.394c22.366,26.112,28.574,58.508,40.701,90.436c10.533,27.733,34.691,46.262,46.948,72.588
	c12.357,26.539,7.07,59.04,2.327,86.763c-2.368,13.84-5.414,27.662-9.418,41.127c-4.351,14.632-12.353,28.85-12.832,44.404
	c-0.5,16.239,8.218,30.222,11.673,45.659c7.254,32.408-11.629,67.45,2.771,98.683c8.203,17.792,26.65,30.307,31.095,49.388
	c4.886,20.976-8.817,41.461-11.985,62.765c-3.496,23.507,5.977,46.75,14.424,68.964c3.104,8.162,6.095,16.623,8.297,25.187
	c2.234-21.211,6.372-41.255,12.876-57.049C565.234,792.175,563.331,770.233,560.229,745.669z M388.686,641.029
	c4.336,13.276,10.325,27.595,15.271,38.68c0.014-0.323,0.014-0.639,0.03-0.963c-0.164,3.389,9.538,12.877,11.44,15.637
	c5.156,7.482,11.084,14.799,15.26,22.941c7.621,14.859,5.023,30.984,0.377,46.348c-1.663,10.795-3.481,28.959-3.481,56.826
	c0,50.571,0,90.514,46.42,113.723c39.271,19.638,54.612,50.516,66.938,75.328c3.131,6.308,6.09,12.263,9.168,17.445
	c12.458,20.98,30.636,44.747,36.328,52.061c1.015-0.273,2.024-0.519,3.021-0.72c-8.938-18.007-37.206-77.006-43.335-114.584
	c-5.274-5.589-33.489-35.193-54.241-51.06c-22.487-17.196-41.188-59.086-29.108-110.421c10.614-45.106,1.867-95.39-10.75-123.023
	c-12.282-26.892-26.558-76.556-26.558-100.282c0-21.414-0.232-27.957-6.33-67.077c-3.261-20.922-1.764-32.4-0.318-43.501
	c1.247-9.592,2.428-18.652,0.31-33.744c-3.999-28.481-13.748-48.606-24.069-69.912c-1.402-2.894-2.81-5.804-4.215-8.75
	c-11.798-24.789-25.991-78.03-25.991-92.747c0-6.926-6.601-22.275-12.71-34.861c-0.374,11.473-2.375,23.305-5.994,35.436
	c-1.885,17.559-7.472,33.802-3.103,51.948c2.454,10.193,7.167,19.828,8.596,30.215c1.818,13.214-1.806,26.517-2.434,39.841
	c-0.738,15.643,4.43,25.73,14.955,36.545c11.111,11.418,23.068,23.579,17.423,40.863c-2.461,7.535-6.632,14.472-8.565,22.159
	c-4.625,18.392,7.43,32.989,11.332,50.17c4.16,18.321,3.302,37.567-0.275,55.949C383.763,608.567,384.532,628.303,388.686,641.029z
	 M579.648,500.288c-4.137,12.207-7.71,22.75-4.3,45.051c2.359,15.419,5.044,25.42,7.204,33.456
	c3.7,13.784,6.148,22.888,3.736,44.249c-1.48,13.12-6.159,24.799-10.683,36.096c-3.532,8.817-6.87,17.144-8.839,26.159
	c-3.711,16.978-1.339,34.852,0.954,52.136c0.318,2.395,0.636,4.787,0.938,7.168c3.255,25.781,5.221,48.887-3.728,70.624
	c-15.692,38.112-17.227,102.254-10.631,145.917c5.753,38.067,37.632,103.141,44.204,116.27c3.269-0.022,6.395,0.289,9.346,0.837
	c-4.577-21.018-18.661-86.644-22.531-116.137c-2.237-17.044,3.142-31.45,8.833-46.702c6.881-18.432,13.994-37.49,10.448-65.325
	c-6.928-54.435-5.752-81.659,4.84-112.033c10.025-28.748,23.521-96.651,14.735-129.622c-2.453-9.204-5.152-17.462-7.533-24.746
	c-6.358-19.467-11.383-34.842-6.131-51.352c5.094-15.999,12.719-47.572,6.582-79.28c-0.429-2.64-9.715-62.135,14.331-104.016
	l4.278-7.441c14.228-24.732,23.072-40.117,28.035-53.693c-17.93,15.948-38.379,28.897-51.984,49.15
	c-14.492,21.572-21.99,47.473-22.221,73.386c-0.163,18.308-0.929,32.3-1.827,42.669c-0.025,2.782-0.093,5.581-0.22,8.389
	C586.667,479.578,582.939,490.581,579.648,500.288z M454.09,196.526c-3.525-7.261-6.278-15.421-9.408-26.768
	c-9.627-34.899-28.882-84.239-66.188-105.9c-37.305-21.661-50.543-13.237-46.933-6.017c3.61,7.221,18.051,2.407,32.492,27.678
	c7.358,12.876,12.23,28.255,19.365,44.38C389.332,138.396,416.632,175.648,454.09,196.526z M461.819,218.164
	c4.206,10.416,8.559,21.188,13.598,31.299c6.267,12.571,13.305,24.59,20.114,36.214c15.501,26.465,30.142,51.463,37.067,83.214
	c1.333,6.124,2.854,12.256,4.325,18.185c4.464,17.99,9.077,36.591,8.734,56.323c-0.216,12.263-2.865,24.107-5.426,35.561
	c-2.63,11.761-5.116,22.868-5.191,34.397c-0.069,10.533,2.73,20.706,5.689,31.475c1.477,5.372,3.006,10.928,4.126,16.49
	c3.667,18.197,5.609,35.643,5.775,51.849c0.214,21.216,10.087,37.601,16.003,45.547c0.363-0.911,0.723-1.834,1.085-2.739
	c4.513-11.267,8.778-21.909,10.13-33.886c2.229-19.763,0.072-27.791-3.501-41.095c-2.212-8.237-4.967-18.491-7.395-34.375
	c-3.725-24.351,0.343-36.355,4.652-49.063c3.261-9.621,6.632-19.569,7.395-36.446c0.243-5.379,0.268-10.753,0.142-16.031
	c-0.178-0.741-0.343-1.452-0.476-2.1c-2.537-12.34-5.707-24.576-9.986-36.435c-8.454-23.425-24.667-39.48-35.323-61.105
	c-7.608-15.441-5.074-33.038-10.603-49.092c-5.779-16.783-14.559-32.631-26.324-45.965c-16.624-18.841-26.861-30.023-34.016-40.017
	c-1.528-0.769-3.107-1.562-4.736-2.376C459.085,211.405,460.465,214.813,461.819,218.164z M340.402,198.042
	c-9.986-38.214-31.928-73.423-52.585-84.743c3.333,3.878,6.042,8.353,8.111,13.031c8.495,19.205,7.486,40.943,15.04,60.41
	c5.927,15.273,19.956,23.775,28.297,37.398c1.705,2.784,3.044,5.749,4.124,8.812C344.292,220.845,343.311,209.18,340.402,198.042z
	 M317.578,544.064c12.44,12.44,12.218,38.357,11.98,65.797c-0.1,11.784-0.205,23.969,0.857,34.26
	c1.51,14.633,9.912,27.553,18.037,40.048c9.433,14.511,19.19,29.517,18.527,47.504c-0.691,18.709,2.696,24.771,7.824,33.947
	c3.078,5.506,6.906,12.359,10.412,23.286c4.812,15.009,2.453,29.874,0.171,44.246c-2.265,14.273-4.403,27.755-0.158,41.544
	c5.567,18.078,15.841,27.697,32.869,43.632c9.063,8.482,20.341,19.038,33.516,33.45c26.551,29.042,61.313,47.169,78.403,54.936
	c-11.311-22.353-26.432-48.204-59.813-64.895c-51.116-25.557-51.116-69.936-51.116-121.323c0-29.018,1.915-47.783,3.689-58.955
	c-11.704-21.814-18.019-43.79-18.876-68.362c-5.255-11.177-14.516-31.773-20.596-50.392c-5.314-16.275-5.44-42.47-4.606-61.624
	c-3.39-6.498-7.708-13.068-9.679-16.216c-6.88-10.988-15.542-21.22-26.628-28.148c-21.079-13.174-35.747-14.822-49.62-25.505
	c-6.605-0.75-14.543-1.632-24.075-2.667C284.277,518.434,306.976,533.46,317.578,544.064z M974.314,305.589
	c-12.628,22.319-35.435,34.935-57.493,47.136c-2.035,1.127-4.065,2.248-6.076,3.374c-15.318,8.568-28.433,26.201-41.118,43.252
	c-6.346,8.534-12.37,16.576-18.573,23.45c0.204,12.442,1.328,24.389,2.607,34.21c3.622-3.739,7.819-7.148,12.498-10.634
	c32.895-24.51,66.446-50.337,89.75-84.641c17.668-26.009,27.676-57.024,44.754-83.513c-1.718-6.547-3.157-13.261-4.186-20.156
	C991.33,271.11,983.529,289.297,974.314,305.589z M1025.574,146.61l1.349,0.625c-13.394,28.9-20.703,52.951-23.009,75.689
	c-1.642,16.183-0.019,31.473,3.223,45.987c1.032-1.373,2.062-2.746,3.149-4.084c15.644-19.255,15.644-27.678,20.459-62.577
	c4.813-34.899,20.458-62.577,27.678-77.018C1063.008,116.06,1043.325,128.741,1025.574,146.61z M831.221,472.451
	c-2.672,3.216-5.556,6.329-8.344,9.341c-6.441,6.957-12.525,13.528-16.502,21.487c-3.012,6.032-3.628,12.977-4.281,20.33
	c-0.448,5.051-0.91,10.274-2.207,15.332c-4.112,16.031-11.859,30.319-20.814,46.004c-9.082,15.912-12.462,33.025-16.04,51.145
	c-0.755,3.825-1.513,7.655-2.326,11.474c-1.159,5.451-3.158,10.542-5.094,15.465c-1.698,4.32-3.299,8.396-4.367,12.672
	c-2.749,11.029-3.778,22.683-3.056,34.633c0.216,3.54,0.556,7.088,0.918,10.841c1.532,15.885,3.114,32.313-5.349,47.275
	c-1.388,2.453-2.873,4.715-4.309,6.9c-3.83,5.835-7.141,10.874-7.583,17.758c-1.134,17.691,5.072,34.661,11.643,52.626
	c5.332,14.569,10.841,29.636,12.066,45.156c2.345,29.68-18.886,49.177-37.62,66.382c-4.159,3.819-8.086,7.428-11.801,11.14
	c-10.092,10.094-17.069,23.372-23.82,36.212c-2.099,3.994-4.27,8.122-6.499,12.091c-2.528,4.497-5.025,9.019-7.52,13.54
	c-9.16,16.596-18.632,33.757-29.727,49.672l-0.396-0.276c0.702,6.362,1.486,11.489,1.998,14.544c0.549,0.329,1.11,0.667,1.691,1.023
	c1.53-1.14,3.105-2.23,4.76-3.226c0.456-0.277,0.926-0.55,1.402-0.819c1.878-1.058,3.803-1.949,5.745-2.763
	c-0.655-6.277,0.917-20.723,22.15-40.383c33.898-31.388,71.189-62.531,96.864-102.008c12.911-19.851,22.605-41.956,25.631-65.588
	c3.58-27.949-6.838-51.073-9.204-78.227c-1.127-12.933,5.264-22.891,8.194-35.041c6.036-25.024-15.538-45.186-9.348-69.256
	c3.495-13.587,14.469-25.461,20.765-37.936c8.599-17.045,16.324-34.287,20.281-53.074c6.813-32.342-3.39-62.378,5.981-94.138
	c3.454-11.708,3.808-23.461,6.823-35.178c1.066-4.143,2.601-7.723,4.464-10.988c-0.533-3.404-1.077-7.225-1.587-11.368
	C840.398,460.988,835.898,466.824,831.221,472.451z M569.35,1070.565c-8.005-10.834-18.446-25.592-26.547-39.235
	c-2.361-3.976-4.611-8.299-6.898-12.846c-9.291-3.622-55.898-23.058-90.563-60.975c-12.951-14.165-24.096-24.594-33.051-32.977
	c-17.431-16.317-28.95-27.097-35.181-47.335c-4.826-15.675-2.431-30.772-0.113-45.375c2.224-14.008,4.325-27.238,0.127-40.322
	c-3.244-10.119-6.693-16.289-9.735-21.735c-5.409-9.677-9.679-17.318-8.9-38.408c0.564-15.296-8.045-28.538-17.16-42.557
	c-8.673-13.341-17.644-27.136-19.364-43.807c-1.109-10.764-1.004-23.189-0.899-35.208c0.21-24.479,0.426-49.794-9.494-59.715
	c-14.796-14.797-56.607-40.004-62.604-43.587c-22.847-2.613-42.272-11.273-58.208-21.995c6.795,6.517,14.255,12.34,22.324,17.297
	c16.847,10.348,37.027,13.887,53.002,25.664c32.041,23.621,23.264,65.468,23.752,99.829c0.26,18.306,3.22,34.589,13.525,49.955
	c9.9,14.761,15.422,31.366,15.206,49.196c-0.226,18.65-10.601,36.761-4.725,55.164c3.645,11.415,14.523,16.522,21.162,25.672
	c9.462,13.042,3.969,24.477-0.132,38.675c-7.887,27.312,3.578,49.353,24.629,66.538c15.394,12.567,29.863,26.247,41.568,42.383
	c12.587,17.354,20.259,34.516,38.481,47.169c33.05,22.951,85.771,48.257,110.878,63.763
	C557.099,1065.401,563.654,1067.366,569.35,1070.565z M660.878,1026.15c2.508-4.541,5.014-9.082,7.553-13.601
	c2.171-3.864,4.314-7.937,6.386-11.881c7.044-13.402,14.328-27.26,25.333-38.264c3.841-3.841,8.02-7.68,12.061-11.391
	c18.15-16.668,36.918-33.9,34.899-59.454c-1.134-14.364-6.441-28.872-11.577-42.905c-6.582-18.001-13.391-36.613-12.144-56.088
	c0.586-9.129,4.845-15.612,8.963-21.881c1.358-2.069,2.763-4.209,4.013-6.416c7.146-12.63,5.692-27.703,4.287-42.277
	c-0.351-3.664-0.719-7.45-0.94-11.142c-0.774-12.816,0.335-25.333,3.294-37.205c1.198-4.809,2.979-9.339,4.701-13.723
	c1.892-4.812,3.678-9.359,4.693-14.124c0.802-3.781,1.551-7.569,2.298-11.353c3.554-17.99,7.229-36.594,16.997-53.711
	c8.645-15.141,16.112-28.896,19.962-43.902c1.126-4.388,1.538-9.043,1.975-13.973c0.694-7.818,1.41-15.902,5.144-23.376
	c4.516-9.045,11.306-16.374,17.868-23.462c2.713-2.93,5.517-5.958,8.045-9.001c5.542-6.666,10.927-13.73,16.137-20.561l2.694-3.526
	c-1.948-22.775-1.895-50.988,6.075-73.005c0.743-2.052,1.453-3.994,2.146-5.875c-4.11,5.947-7.687,12.26-10.594,18.903
	c-8.926,20.397-2.559,45.602-15.265,64.622c-14.869,22.259-47.033,22.803-57.484,49.509c-10.831,27.678-8.424,43.323-25.272,63.781
	c-16.848,20.458-22.864,15.697-21.661,54.18c1.204,38.483-15.645,44.5-14.441,84.213c1.203,39.712,2.406,30.086-13.238,79.425
	c-5.896,18.593-12.429,38.815-10.072,58.592c0.866,7.263,3.015,14.28,5.447,21.153c6.538,18.473,22.21,33.116,7.031,52.631
	c-16.848,21.661-18.051,14.441-25.272,49.34c-7.22,34.899-25.272,62.578-28.882,75.815c-1.993,7.309-3.983,14.606-5.369,19.686
	c0.049,3.739,0.201,7.398,0.416,10.905C645.652,1053.598,653.396,1039.705,660.878,1026.15z M250.845,498.167
	c12.581,1.336,23.082,2.476,31.871,3.449c-1.757-2.072-3.523-4.369-5.31-6.937c-18.562-26.682-43.532-51.093-69.741-70.121
	c-30.333-22.022-43.967-51.585-56.686-85.522c-5.016-13.385-10.162,4.493-10.073,10.003c0.551,34.354,6.853,69.896,23.335,100.362
	C181.907,469.387,211.187,493.955,250.845,498.167z M638.79,353.27c-22.561,39.293-13.43,97.712-13.336,98.298
	c6.474,33.432-1.51,66.574-6.848,83.343c-4.422,13.9-0.006,27.422,6.109,46.138c2.417,7.39,5.152,15.764,7.666,25.194
	c9.682,36.328-5.197,106.72-14.923,134.611c-10.216,29.301-11.25,54.573-4.43,108.161c3.808,29.915-4.016,50.875-10.918,69.369
	c-5.542,14.851-10.329,27.678-8.369,42.626c4.163,31.724,20.362,106.132,23.37,119.829c8.373,3.145,14.358,7.581,16.729,9.512
	c-0.583-3.93-1.254-9.078-1.799-14.989l-0.42-0.292c0.119-0.171,0.227-0.351,0.346-0.522c-0.847-9.473-1.353-20.783-0.665-32.072
	c-2.279-18.148-3.647-45.936,3.518-72.448c11.755-43.493,38.793-79.084,27.06-126.022c-4.018-16.072-12.954-34.478-9.984-51.326
	c1.967-11.158,9.347-21.524,12.504-32.49c10.347-35.926-2.238-69.704,2.107-105.6c2.377-19.635,10.388-36.827,5.026-57.106
	c-3.25-12.288-10.841-28.298-8.846-41.251c1.766-11.466,12.615-19.234,15.074-30.7c3.225-15.04-4.391-29.392-8.241-43.525
	c-3.991-14.653,2.899-27.887,8.623-41.483c16.617-39.467,20.026-86.881,21.398-129.869c-2.889-24.188,2.654-45.091,16.513-62.192
	c17.169-21.188,40.255-40.686,63.152-54.256c-23.592,6.93-45.435,19.177-64.187,36.72c-14.501,13.566-25.821,30.05-39.098,44.73
	c-3.518,19.178-13.19,35.997-32.855,70.177L638.79,353.27z M851.226,409.445c3.793-4.738,7.62-9.836,11.583-15.164
	c13.217-17.767,26.887-36.142,43.787-45.596c2.022-1.131,4.063-2.261,6.112-3.393c21.027-11.631,42.767-23.655,54.211-43.887
	c14.758-26.089,26.153-58.198,27.878-63.161c-0.088-5.287,0.107-10.674,0.665-16.176c1.827-18.02,6.647-36.752,14.905-57.776
	c-3.689,5.132-6.694,10.264-8.505,15.094c-3.283,8.756-7.19,17.195-10.112,26.128c-6.887,21.052-8.46,43.889-16.188,64.466
	c-13.514,35.984-50.578,39.287-80.381,55.377c-9.777,5.278-18.877,11.877-26.967,19.532c-2.688,6.596-6.172,15.617-10.631,27.932
	C853.624,383.754,851.797,396.552,851.226,409.445z M809.257,228.242c2.105-1.055,4.652-0.21,5.705,1.883
	c1.054,2.096,0.213,4.65-1.883,5.705c-17.188,8.655-35.582,11.076-50.767,11.076c-14.408,0-25.902-2.172-30.795-3.268
	c-3.087,3.336-6.069,6.725-8.864,10.174c-6.607,8.155-11.089,17.321-13.43,27.427c14.326-9.011,46.514-3.931,62.917-6.435
	c19.987-3.051,41.331-8.209,57.634-20.807c26.475-20.458,42.12-46.933,42.12-46.933s33.695,2.407,62.577-16.848
	c28.882-19.255,51.747-44.526,51.747-44.526s-24.069,6.017-34.899,7.221c-10.831,1.203-33.696-13.238-61.374,12.034
	c-27.678,25.272-32.492,24.068-51.746,22.865c-8.968-0.561-17.846-0.435-26.585,0.328c-23.557,8.15-50.858,26.273-73.053,48.19
	C752.284,238.649,782.805,241.564,809.257,228.242z M573.547,1084.417c-5.232-5.51-13.156-10.215-21.294-10.215
	c-1.256,0-2.517,0.111-3.772,0.349c-12.628,2.398-23.021,11.499-26.389,18.847c-0.727,1.587-1.773,4.547-0.619,6.546
	c1.595,2.757,10.096,4.129,19.387,4.675C548.59,1098.501,559.378,1091.856,573.547,1084.417z M625.938,1125.47
	c-5.448-6.803,1.947-15.844,5.501-20.189l0.384-0.473c1.051-1.292,2.161-2.531,3.321-3.723c-1.715-1.025-3.433-2.016-5.119-2.945
	l-0.844-0.608c-0.68-0.63-12.912-11.704-30.051-11.704c-5.918,0-12.417,1.319-19.229,4.843
	c-28.892,14.945-44.34,26.887-45.917,35.496c-0.423,2.312,0.254,4.367,2.138,6.466c12.077,13.471,61.064,22.96,89.054,13.631
	c8.72-2.907,15.358-6.174,20.327-9.458C636.378,1133.356,628.898,1129.17,625.938,1125.47z M632.573,1120.163
	c4.607,5.758,38.06,18.748,54.93,14.389c13.153-3.382,22.055-7.904,24.431-12.406c0.678-1.28,0.752-2.475,0.243-3.875
	c-2.923-8.051-21.685-21.671-29.926-24.096c-9.273-2.735-20.219-1.126-30.034,4.4c-0.398,0.224-0.791,0.454-1.181,0.689
	c-4.878,2.937-9.121,6.604-12.619,10.905l-0.401,0.492C631.494,1118.631,632.526,1120.105,632.573,1120.163z"/>
</svg>
