<?xml version="1.0"?>
<svg xmlns:rdf="http://www.w3.org/1999/02/22-rdf-syntax-ns#" xmlns="http://www.w3.org/2000/svg" xmlns:cc="http://creativecommons.org/ns#" xmlns:dc="http://purl.org/dc/elements/1.1/" xmlns:svg="http://www.w3.org/2000/svg" id="svg2" viewBox="0 0 400 300" version="1.0">
  <g id="layer1">
    <rect id="rect2387" opacity=".2" height="315.36" width="416.72" y="-6.1433" x="-7.1672" fill="#d5f6ff"/>
    <path id="path2389" d="m73.598 163.34c17.336-24.48 78.002-27.79 177.26-39.99 47.35 16.17 59.2 20.85 74.46 41.03-138.07 15.13-198.21 7.99-251.72-1.04z" fill="#fd5" fill-rule="evenodd"/>
    <path id="rect2391" opacity=".2" d="m-7.1672 158.53c139.34-3.56 290.67 2.59 416.73 0v150.69h-416.73c0.0028-50.23 0.0028-100.46 0.0028-150.69z" fill="#80e5ff"/>
    <path id="path2393" d="m267.24 48.123c-6.9 28.206-9.45 55.537-12.29 82.937l-7.17 1.02c6.57-29.48 11.12-59.97 14.34-91.124l5.12 7.167z" fill="#d4aa00" fill-rule="evenodd"/>
    <path id="path2395" d="m252.54 130.19c3.27-27.06 7.52-54.118 12.44-81.176l-2.18-3.11c-3.18 29.47-7.39 57.926-13.06 84.906l2.8-0.62z" fill="#a80" fill-rule="evenodd"/>
    <path id="path2397" opacity=".8" d="m237.11 56.374c5.41-9.098 14.07-15.3 19.47-24.398-7.27-4.011-15.64-0.781-22.92-4.792 10.33 2.329 21.73-2.581 32.06-0.252 1.56-8.161 23.04 5.035 28.95 7.734-10.61 1.849-22.31-11.143-21.33-0.606 8.24-1.033 18.3 9.155 26.54 8.122-9.72 4.183-21.25-2.855-30.97 1.328 3.53 7.523 2 18.303 5.53 25.826-6.98-7.952-8.9-19.162-15.88-27.114-6.07 5.682-15.39 8.469-21.45 14.152z" fill="#abc837"/>
    <path id="path2402" d="m249.61 28.108c6.74-0.526 11.99-0.181 13.83 2.152 4.54-3.583 11.6-2.99 15.21-1.076-3.96 0.282-10.33 0.244-9.99 4.457 6.46 3.113 12.71 5.648 18.76 7.531-7.51 0.516-18.86 0.171-21.21-1.69l3.84 17.982c-3.13-6.096-2.37-9.604-9.38-18.29-5.38-1.1-8.51 5.29-12.75 7.992 4.18-5.069 5.7-9.758 12.6-15.216-1.22-2.186-6.64-2.801-10.91-3.842z" fill="#89a02c" fill-rule="evenodd"/>
    <path id="path2404" d="m234.95 64.346c7.24 28.12 6.14 40.174 16.58 65.664l-5.83 4.28c-8.14-29.08-6.77-44.862-18.65-73.842l7.9 3.898z" fill="#d4aa00" fill-rule="evenodd"/>
    <path id="path2406" d="m250.47 129.27c-9.91-25.39-8.64-36.9-17.08-63.074l-3.39-1.712c11.11 27.479 10.55 40.196 18.3 66.656l2.17-1.87z" fill="#a80" fill-rule="evenodd"/>
    <path id="path2408" opacity=".8" d="m212.3 85.85c0.46-10.572 5.17-20.131 5.63-30.703-8.3-0.097-14.15 6.701-22.46 6.604 10.2-2.823 17.93-12.541 28.13-15.365-2.47-7.933 22.69-6.447 29.17-6.86-8.48 6.642-24.92 0.716-19.08 9.543 6.78-4.806 20.45-0.577 27.23-5.383-6.59 8.279-20.08 7.523-26.67 15.802 6.67 4.962 10.4 15.19 17.07 20.153-9.91-3.711-16.89-12.687-26.8-16.397-2.66 7.873-9.56 14.733-12.22 22.606z" fill="#abc837"/>
    <path id="path2410" d="m209.96 55.034c5.69-3.648 10.48-5.825 13.21-4.638 2.31-5.305 8.81-8.118 12.9-8.137-3.36 2.121-9 5.099-6.7 8.648 7.16-0.304 13.87-1.026 20.08-2.22-6.37 3.999-16.54 9.059-19.49 8.53l11.88 14.034c-5.63-3.897-6.62-7.347-16.9-11.691-5.26 1.572-5.01 8.685-7.47 13.07 1.3-6.446 0.41-11.293 3.92-19.365-2.11-1.349-7.17 0.666-11.43 1.769z" fill="#89a02c" fill-rule="evenodd"/>
    <path id="path2414" fill-rule="evenodd" fill="#00222b" d="m74.598 64.752l3.516-3.31 3.31 2.482-3.31-0.827s-2.275 4.137-3.102 4.137c-0.828 0-3.31-2.896-3.31-2.896l-2.896 1.241 2.689-3.103 3.103 2.276z"/>
    <path id="path2416" fill-rule="evenodd" fill="#00222b" d="m88.48 58.654l4.474-2.756 2.983 3.371-3.346-1.608s-3.332 3.91-4.214 3.729c-0.882-0.182-2.892-3.813-2.892-3.813l-3.359 0.688 3.547-2.717 2.807 3.106z"/>
    <path id="path2418" fill-rule="evenodd" fill="#00222b" d="m77.163 54.908l3.486-1.479 1.761 2.726-2.21-1.508s-2.798 2.425-3.407 2.2-1.648-3.03-1.648-3.03l-2.467 0.126 2.821-1.552 1.664 2.517z"/>
    <path id="path2420" fill-rule="evenodd" fill="#00222b" d="m91.959 50.073l1.708-2.394 2.272 1.09-2.075-0.102s-0.869 2.742-1.363 2.84-2.321-1.337-2.321-1.337l-1.583 1.085 1.238-2.173 2.124 0.991z"/>
    <path id="path2424" fill-rule="evenodd" fill="#00222b" d="m166.38 40.5l-4.47-2.756-2.99 3.372 3.35-1.608s3.33 3.91 4.21 3.728c0.89-0.181 2.9-3.812 2.9-3.812l3.35 0.687-3.54-2.717-2.81 3.106z"/>
    <path id="path2428" fill-rule="evenodd" fill="#00222b" d="m161.58 28.41l-1.71-2.394-2.27 1.09 2.07-0.102s0.87 2.742 1.37 2.84c0.49 0.098 2.32-1.337 2.32-1.337l1.58 1.085-1.24-2.173-2.12 0.991z"/>
    <path id="path2430" fill-rule="evenodd" fill="#00222b" d="m301 32.5l4.47-2.756 2.99 3.372-3.35-1.608s-3.33 3.91-4.21 3.728c-0.89-0.181-2.9-3.812-2.9-3.812l-3.36 0.687 3.55-2.717 2.81 3.106z"/>
    <path id="path2432" fill-rule="evenodd" fill="#00222b" d="m321.98 25.393l-3.68-1.559-1.85 2.873 2.33-1.59s2.95 2.557 3.59 2.32 1.74-3.195 1.74-3.195l2.6 0.133-2.97-1.636-1.76 2.654z"/>
    <path id="path2434" fill-rule="evenodd" fill="#00222b" d="m303.57 23.588l1.7-2.394 2.28 1.09-2.08-0.102s-0.87 2.742-1.36 2.84c-0.5 0.098-2.32-1.337-2.32-1.337l-1.59 1.085 1.24-2.173 2.13 0.991z"/>
    <path id="path2443" d="m93.686 153.84c10.944-8.56 47.324-12.67 70.644-16.89-7.08 3.02-12.86 6.27-15.87 9.98 7.99 6.22 13.97 6.41 20.74 8.96-28.06-0.97-48.49-3.3-75.514-2.05z" fill="#ffe680" fill-rule="evenodd"/>
    <path id="path2445" d="m307.17 155.38c-6.29-7.23-17.81-11.84-29.44-16.39-17.94 10.34-49.03 11.91-74.23 17.41 34.51-0.34 50.57 1.97 103.67-1.02z" fill="#ffe680" fill-rule="evenodd"/>
    <path id="path2447" d="m239.08 128.75c0.58 3.34 3.64 6.05 6.91 8.71 5.42-0.03 8.57-3.87 12.03-7.17 1.05-0.96 2.13-1.68 3.84 2.05-5.39 9.6-13.17 9.13-17.92 8.96-5.74-4.18-7.91-8.05-8.96-13.57 3.99-1.9 4.88-1.16 4.1 1.02z" fill="#ffe680" fill-rule="evenodd"/>
  </g>
  <metadata>
    <rdf:RDF>
      <cc:Work>
        <dc:format>image/svg+xml</dc:format>
        <dc:type rdf:resource="http://purl.org/dc/dcmitype/StillImage"/>
        <cc:license rdf:resource="http://creativecommons.org/licenses/publicdomain/"/>
        <dc:publisher>
          <cc:Agent rdf:about="http://openclipart.org/">
            <dc:title>Openclipart</dc:title>
          </cc:Agent>
        </dc:publisher>
        <dc:title>tropical island</dc:title>
        <dc:date>2010-06-16T21:31:20</dc:date>
        <dc:description>An island with two palms and birds in the sky</dc:description>
        <dc:source>http://openclipart.org/detail/67303/tropical-island-by-i-art</dc:source>
        <dc:creator>
          <cc:Agent>
            <dc:title>i-art</dc:title>
          </cc:Agent>
        </dc:creator>
        <dc:subject>
          <rdf:Bag>
            <rdf:li>beach</rdf:li>
            <rdf:li>bird</rdf:li>
            <rdf:li>clip art</rdf:li>
            <rdf:li>clipart</rdf:li>
            <rdf:li>island</rdf:li>
            <rdf:li>ocean</rdf:li>
            <rdf:li>palm</rdf:li>
            <rdf:li>sea</rdf:li>
            <rdf:li>summer</rdf:li>
            <rdf:li>tropical</rdf:li>
          </rdf:Bag>
        </dc:subject>
      </cc:Work>
      <cc:License rdf:about="http://creativecommons.org/licenses/publicdomain/">
        <cc:permits rdf:resource="http://creativecommons.org/ns#Reproduction"/>
        <cc:permits rdf:resource="http://creativecommons.org/ns#Distribution"/>
        <cc:permits rdf:resource="http://creativecommons.org/ns#DerivativeWorks"/>
      </cc:License>
    </rdf:RDF>
  </metadata>
</svg>
