<?xml version="1.0" encoding="UTF-8" standalone="no"?>
<!-- Created with Inkscape (http://www.inkscape.org/) -->

<svg
   xmlns:dc="http://purl.org/dc/elements/1.1/"
   xmlns:cc="http://creativecommons.org/ns#"
   xmlns:rdf="http://www.w3.org/1999/02/22-rdf-syntax-ns#"
   xmlns:svg="http://www.w3.org/2000/svg"
   xmlns="http://www.w3.org/2000/svg"
   xmlns:sodipodi="http://sodipodi.sourceforge.net/DTD/sodipodi-0.dtd"
   xmlns:inkscape="http://www.inkscape.org/namespaces/inkscape"
   width="1052.3622"
   height="744.09448"
   id="svg2"
   version="1.1"
   inkscape:version="0.48.3.1 r9886"
   sodipodi:docname="whale.svg">
  <defs
     id="defs4" />
  <sodipodi:namedview
     id="base"
     pagecolor="#ffffff"
     bordercolor="#666666"
     borderopacity="1.0"
     inkscape:pageopacity="0.0"
     inkscape:pageshadow="2"
     inkscape:zoom="0.22627417"
     inkscape:cx="491.04382"
     inkscape:cy="900.92046"
     inkscape:document-units="px"
     inkscape:current-layer="layer1"
     showgrid="false"
     inkscape:window-width="1366"
     inkscape:window-height="746"
     inkscape:window-x="-8"
     inkscape:window-y="1016"
     inkscape:window-maximized="1" />
  <metadata
     id="metadata7">
    <rdf:RDF>
      <cc:Work
         rdf:about="">
        <dc:format>image/svg+xml</dc:format>
        <dc:type
           rdf:resource="http://purl.org/dc/dcmitype/StillImage" />
        <dc:title></dc:title>
      </cc:Work>
    </rdf:RDF>
  </metadata>
  <g
     inkscape:label="Layer 1"
     inkscape:groupmode="layer"
     id="layer1"
     transform="translate(0,-308.2677)">
    <rect
       style="fill:#2a7fff;fill-opacity:1;fill-rule:nonzero;stroke:none"
       id="rect4136-3-1"
       width="1032.0461"
       height="589.64526"
       x="13.181637"
       y="366.40329"
       inkscape:export-filename="C:\Users\iie\Desktop\rect4274.png"
       inkscape:export-xdpi="113"
       inkscape:export-ydpi="113" />
    <path
       style="fill:#aaccff;fill-opacity:1;fill-rule:nonzero;stroke:none"
       d="m 1044.704,365.06966 -264.26334,0.47221 c -137.45776,0.26569 -245.9058,1.42711 -241.01837,2.56403 27.05639,6.29411 94.56452,29.47517 133.29558,45.78139 106.18049,44.70333 201.51929,109.58655 306.56969,208.63069 16.58004,15.63213 45.49884,39.91232 65.41644,56.30739 l 0,-313.75571 z"
       id="path4190-7"
       inkscape:connector-curvature="0" />
    <path
       style="fill:#80b3ff;fill-opacity:1;fill-rule:nonzero;stroke:none"
       d="m 568.90859,367.02631 -259.60755,0.47243 c -260.553983,0.50729 -283.808243,2.65276 -120.6104,10.99821 46.29225,2.36732 106.17905,7.89439 133.09315,12.28033 117.12052,19.08639 223.29965,71.11386 340.44182,166.83037 90.20718,73.70812 215.25468,203.88211 321.17789,334.40287 12.54654,15.45993 40.0736,32.33943 61.3005,44.97171 l 0,-281.70551 -64.23565,-46.15245 C 840.80635,503.29771 743.9413,416.9949 604.87242,377.28241 l -35.96383,-10.2561 z"
       id="path4194-4"
       inkscape:connector-curvature="0" />
    <path
       style="fill:#5599ff;fill-opacity:1;fill-rule:nonzero;stroke:none"
       d="M 794.79792,919.94706 C 733.0945,778.66354 673.79647,687.58808 591.51588,607.7276 472.08665,491.81099 323.49946,419.83206 124.71731,381.60001 c -23.46227,-4.51258 -23.63815,-4.5848 -8.97419,-3.68647 8.22634,0.50405 34.70043,1.7906 58.83122,2.85907 116.55506,5.16077 175.75808,13.36651 239.32459,33.17104 164.12029,51.1326 336.92098,190.28629 557.58568,449.0149 26.26893,30.80036 71.78189,85.98013 74.32369,90.1101 1.1924,1.93743 -22.7292,2.43545 -116.99127,2.43545 l -118.49014,0 -15.52897,-35.55704 0,0 z"
       id="path4196-0"
       inkscape:connector-curvature="0"
       inkscape:export-filename="C:\Users\iie\Desktop\rect4274.png"
       inkscape:export-xdpi="113"
       inkscape:export-ydpi="113" />
    <path
       style="fill:#2a7fff;fill-opacity:1;fill-rule:nonzero;stroke:none"
       d="M 576.78783,904.36048 C 530.11469,777.74817 507.74885,727.3688 474.28156,673.46327 446.19884,628.23062 420.46948,596.86477 379.60445,558.04521 300.68497,483.07603 204.00509,428.90633 66.321182,382.51259 c -18.457199,-6.2193 -31.66989,-11.35264 -29.361507,-11.40737 7.296677,-0.17296 48.272442,5.41586 78.518085,10.7093 173.77027,30.41269 311.75311,87.41988 429.81452,177.57662 30.84147,23.55189 89.4529,80.08395 115.37727,111.28409 24.55774,29.55538 51.55294,67.07188 71.76683,99.73766 23.86115,38.56002 63.138,116.64663 87.464,173.8883 l 4.76088,11.20291 -114.51007,0 -114.51023,0 -18.85313,-51.14362 z"
       id="path4198-9"
       inkscape:connector-curvature="0"
       inkscape:export-filename="C:\Users\iie\Desktop\rect4274.png"
       inkscape:export-xdpi="113"
       inkscape:export-ydpi="113" />
    <path
       style="fill:#0066ff;fill-opacity:1;fill-rule:nonzero;stroke:none"
       d="M 397.88946,912.15382 C 394.23528,789.81689 369.52335,712.25508 306.48309,625.26251 279.41735,587.91303 255.35781,560.95643 215.44996,523.26742 163.31902,474.03512 98.752043,422.87898 36.804783,381.72751 c -6.2912,-4.1793 -10.577238,-7.86287 -9.524429,-8.18577 1.052886,-0.32291 9.46799,1.55838 18.700258,4.1806 9.232333,2.62233 17.566162,4.32387 18.519677,3.78148 0.953594,-0.54249 1.733756,-0.1437 1.733756,0.88635 0,2.31949 12.491559,6.49869 15.058877,5.038 1.030371,-0.5861 1.873412,-0.23232 1.873412,0.78638 0,1.67704 8.492236,4.81799 13.757484,5.08832 1.164125,0.0594 2.592778,0.5887 3.174822,1.17535 2.34512,2.36365 23.87889,9.53947 25.63281,8.5416 1.03518,-0.58891 1.8822,-0.26137 1.8822,0.72787 0,1.739 17.92743,9.10719 22.2236,9.13397 1.16414,0.0108 2.59274,0.53903 3.17484,1.18182 0.58203,0.64279 16.7735,8.15349 35.98108,16.69036 132.49455,58.88793 226.38871,133.13551 294.00046,232.48323 8.33851,12.25248 16.31847,22.95434 17.73314,23.78185 1.41475,0.8275 1.85152,1.51801 0.97068,1.53442 -1.57351,0.0291 27.30843,54.62648 29.90506,56.5313 0.73042,0.5358 1.49277,2.28927 1.69417,3.89667 0.40178,3.20714 22.16144,51.03533 23.93284,52.60484 0.60466,0.53591 1.42482,2.72769 1.82245,4.87079 0.39769,2.1433 1.53471,4.17249 2.52679,4.50976 0.99201,0.33716 1.32624,1.75833 0.74265,3.15823 -0.58361,1.40002 0.37701,3.86925 2.1347,5.48712 1.75762,1.6181 2.75522,3.34738 2.21681,3.84302 -1.47606,1.35866 6.05687,19.04601 8.1115,19.04601 0.98169,0 1.2698,0.76716 0.64018,1.70499 -1.59299,2.37262 5.06517,19.72659 7.56842,19.72659 1.12337,0 1.50422,0.8017 0.84636,1.78154 -0.91867,1.36827 23.08617,66.88392 31.64965,86.38034 1.41475,3.22084 -4.52863,3.40956 -107.4036,3.40956 l -108.90114,0 -1.29483,-43.35028 z"
       id="path4200-4"
       inkscape:connector-curvature="0"
       inkscape:export-filename="C:\Users\iie\Desktop\rect4274.png"
       inkscape:export-xdpi="113"
       inkscape:export-ydpi="113" />
    <path
       style="fill:#2a7fff;fill-opacity:1;fill-rule:nonzero;stroke:none"
       d="m 197.18172,914.1027 c 0.41936,-22.77136 -0.36334,-52.36193 -1.73927,-65.75661 C 182.62356,723.5505 136.86009,594.57529 44.438162,422.77037 30.066464,396.05464 18.699566,373.83852 19.178412,373.40128 c 1.079152,-0.98534 44.495216,28.77528 80.152294,54.94237 162.692474,119.39267 254.856434,234.91663 284.714604,356.87862 9.66891,39.49473 16.12827,97.6832 16.14492,145.44068 l 0.008,24.84115 -101.88979,0 -101.88976,0 0.76235,-41.40248 z"
       id="path4202-8"
       inkscape:connector-curvature="0"
       inkscape:export-filename="C:\Users\iie\Desktop\rect4274.png"
       inkscape:export-xdpi="113"
       inkscape:export-ydpi="113" />
    <path
       style="fill:#5599ff;fill-opacity:1;fill-rule:nonzero;stroke:none"
       d="m 14.59619,663.742 0.166194,-291.76211 26.655774,45.78572 C 144.15085,594.22614 192.14933,716.20303 207.72223,840.38887 c 3.54846,28.29679 4.65004,86.27054 1.99307,104.88643 l -1.45987,10.2288 -96.91272,0 -96.912659,0 0.166139,-291.7621 z"
       id="path4204-8"
       inkscape:connector-curvature="0"
       inkscape:export-filename="C:\Users\iie\Desktop\rect4274.png"
       inkscape:export-xdpi="113"
       inkscape:export-ydpi="113" />
    <path
       style="fill:none;stroke:#ffffff;stroke-width:1.20546627;stroke-linecap:butt;stroke-linejoin:miter;stroke-miterlimit:4;stroke-opacity:1;stroke-dasharray:none"
       d="M 337.78305,371.52194 C 195.92839,558.24116 -19.39475,716.01907 1072.3026,983.29696"
       id="path4272-4"
       inkscape:connector-curvature="0"
       sodipodi:nodetypes="cc"
       inkscape:export-filename="C:\Users\iie\Desktop\rect4274.png"
       inkscape:export-xdpi="113"
       inkscape:export-ydpi="113" />
    <path
       style="fill:#003380;stroke:none"
       d="M 356.97032,780.26414 C 350.93033,876.24182 299.27003,927.1191 256.61891,916.10329 279.18852,870.18316 312.4363,824.89168 356.97032,780.26414 z"
       id="path4094-7-5"
       inkscape:connector-curvature="0"
       sodipodi:nodetypes="ccc"
       inkscape:export-filename="C:\Users\iie\Desktop\rect4274.png"
       inkscape:export-xdpi="113"
       inkscape:export-ydpi="113" />
    <path
       style="fill:#003380;fill-opacity:1;stroke:none"
       d="m 209.20714,809.96009 c 182.5425,97.71602 320.53873,5.32616 455.39836,-103.57916 35.95462,-29.03492 71.6862,-59.24378 107.97953,-87.33685 61.58024,-62.95293 57.17145,-126.91612 105.85888,-155.31192 -26.90196,9.04837 -65.58426,46.27877 -87.25095,76.49993 -54.61183,35.83374 -145.58872,79.49536 -210.59253,44.63164 -10.9456,-6.55386 -65.72252,33.9885 -78.29609,36.1004 -125.40966,21.06408 -186.6369,41.93589 -296.34687,135.78958 -14.98976,11.02067 -15.83931,21.71346 -16.98881,28.33674 -1.5699,9.04502 1.96148,13.18179 20.23848,24.86964 z"
       id="path4090-5"
       inkscape:connector-curvature="0"
       sodipodi:nodetypes="csccccscsc"
       inkscape:export-filename="C:\Users\iie\Desktop\rect4274.png"
       inkscape:export-xdpi="113"
       inkscape:export-ydpi="113" />
    <path
       style="fill:#0044aa;fill-opacity:1;stroke:none"
       d="m 849.21908,485.16374 c 62.02169,-8.18901 124.04357,-14.92706 186.06522,-45.78571 -42.53902,-29.1405 -86.14192,-31.24776 -164.63359,17.53502 -13.23405,-59.07029 -38.20156,-50.6713 -61.37239,-52.60484 -8.26378,39.28173 12.13607,62.18425 39.94076,80.85553 z"
       id="path4092-1"
       inkscape:connector-curvature="0"
       sodipodi:nodetypes="ccccc"
       inkscape:export-filename="C:\Users\iie\Desktop\rect4274.png"
       inkscape:export-xdpi="113"
       inkscape:export-ydpi="113" />
    <path
       style="fill:#80b3ff;stroke:none"
       d="m 189.20645,788.961 c 73.43258,6.75974 106.43592,0.65574 147.99749,-2.72521 16.98548,-0.18818 17.67539,0.34622 24.95738,6.05768 99.05847,73.10365 150.96228,0.0939 264.46092,-55.37971 -101.13237,75.45511 -225.57485,158.00053 -374.68726,94.43818 -21.56043,-9.19065 -47.82565,-20.17936 -65.05713,-37.343 -1.42306,-2.31917 -1.40551,-4.89454 2.3286,-5.04794 z"
       id="path4114-7"
       inkscape:connector-curvature="0"
       sodipodi:nodetypes="ccccscc"
       inkscape:export-filename="C:\Users\iie\Desktop\rect4274.png"
       inkscape:export-xdpi="113"
       inkscape:export-ydpi="113" />
    <path
       style="fill:#0044aa;stroke:none"
       d="m 434.22525,807.61188 c 135.19927,25.86103 199.45022,91.7257 177.29781,135.40881 -61.673,-33.55429 -120.8203,-78.47482 -177.29781,-135.40881 z"
       id="path4094-1"
       inkscape:connector-curvature="0"
       sodipodi:nodetypes="ccc"
       inkscape:export-filename="C:\Users\iie\Desktop\rect4274.png"
       inkscape:export-xdpi="113"
       inkscape:export-ydpi="113" />
    <path
       sodipodi:type="arc"
       style="fill:#000000;fill-opacity:1;fill-rule:nonzero;stroke:none"
       id="path4116-1"
       sodipodi:cx="0"
       sodipodi:cy="3149.439"
       sodipodi:rx="64.649765"
       sodipodi:ry="64.649765"
       d="m 64.649765,3149.439 a 64.649765,64.649765 0 1 1 -129.29953,0 64.649765,64.649765 0 1 1 129.29953,0 z"
       transform="matrix(0.07910871,0,0,0.07910871,382.83813,526.07295)"
       inkscape:export-filename="C:\Users\iie\Desktop\rect4274.png"
       inkscape:export-xdpi="113"
       inkscape:export-ydpi="113" />
    <path
       sodipodi:type="arc"
       style="fill:#000000;fill-opacity:1;fill-rule:nonzero;stroke:none"
       id="path4116-9-5"
       sodipodi:cx="0"
       sodipodi:cy="3149.439"
       sodipodi:rx="64.649765"
       sodipodi:ry="64.649765"
       d="m 64.649765,3149.439 a 64.649765,64.649765 0 1 1 -129.29953,0 64.649765,64.649765 0 1 1 129.29953,0 z"
       transform="matrix(0.12431371,0,0,0.01883542,393.79746,591.45063)"
       inkscape:export-filename="C:\Users\iie\Desktop\rect4274.png"
       inkscape:export-xdpi="113"
       inkscape:export-ydpi="113" />
    <path
       style="fill:#0044aa;fill-opacity:1;fill-rule:nonzero;stroke:none"
       d="m 204.86478,789.64459 c -8.30469,-0.67873 -15.25888,-1.27812 -15.4537,-1.33221 -0.65383,-0.18191 0.9705,-8.98726 2.41432,-13.08744 2.57958,-7.32544 4.09685,-13.93556 22.34382,-29.15291 73.95114,-61.67252 129.55721,-88.35447 203.44683,-107.42855 19.68343,-5.08109 27.78005,-6.79656 61.47584,-13.02525 28.59117,-5.28512 28.04189,-5.07795 54.55473,-20.58539 18.77498,-10.98159 35.48339,-19.16887 40.723,-19.95459 3.41439,-0.51195 5.47302,-0.0324 11.9011,2.77507 30.58897,13.35777 65.16942,13.37817 108.11139,0.0637 62.12252,-14.56787 97.62343,-55.24681 138.49446,-93.08944 12.06381,-10.83757 17.38982,-17.57788 19.57826,-16.73806 1.12735,0.43258 -4.59881,8.33 -7.97445,12.47433 -2.39901,2.94533 -7.27358,10.26042 -10.83229,16.25581 -8.70313,14.6619 -11.76904,20.82258 -21.06394,27.56116 -37.24448,27.00118 -56.17667,96.18906 -360.56106,172.69406 -28.18507,7.08406 -73.8545,12.79465 -78.14087,14.86303 -10.42385,5.03047 -18.43503,10.37778 -43.70641,29.17311 -29.40208,21.86774 -42.64787,29.94997 -60.18237,36.7218 l -8.55367,3.30355 -20.73767,-0.12901 c -11.40579,-0.0712 -27.53255,-0.68424 -35.83732,-1.36277 z M 401.56471,651.21897 c 1.70462,-1.52136 -6.28209,-2.74626 -12.15941,-1.86488 -8.04636,1.20655 -1.37768,3.65236 7.36983,2.70286 2.41099,-0.26158 4.56636,-0.63879 4.78958,-0.83798 z"
       id="path4140-2"
       inkscape:connector-curvature="0"
       sodipodi:nodetypes="ccsssssssccsssssssscsscsscs"
       inkscape:export-filename="C:\Users\iie\Desktop\rect4274.png"
       inkscape:export-xdpi="113"
       inkscape:export-ydpi="113" />
    <path
       sodipodi:type="arc"
       style="fill:#ffffff;fill-opacity:1;fill-rule:nonzero;stroke:none"
       id="path4146-7"
       sodipodi:cx="320.71429"
       sodipodi:cy="3370.9336"
       sodipodi:rx="17.857143"
       sodipodi:ry="17.142857"
       d="m 338.57144,3370.9336 a 17.857143,17.142857 0 1 1 -35.71429,0 17.857143,17.142857 0 1 1 35.71429,0 z"
       transform="matrix(0.12054663,0,0,0.12054663,344.88752,369.13399)"
       inkscape:export-filename="C:\Users\iie\Desktop\rect4274.png"
       inkscape:export-xdpi="113"
       inkscape:export-ydpi="113" />
    <path
       style="fill:#003380;fill-opacity:1;fill-rule:nonzero;stroke:none"
       d="m 605.14601,937.91369 c -13.35937,-8.2853 -10.29034,-17.63595 -41.0149,-48.06591 -28.62646,-28.35197 -42.33191,-28.6386 -54.24203,-38.1649 -17.93043,-14.34159 -39.47226,-28.41792 -56.72871,-37.069 -3.54398,-1.77657 -16.2877,-6.2939 -16.11519,-6.4662 0.47337,-0.47351 19.02901,2.20852 30.58122,5.3444 56.62598,15.37098 97.51441,38.17882 124.23443,65.08241 11.74065,11.82139 18.88771,23.0813 22.11592,34.84311 1.83039,6.66873 1.70924,16.89233 -0.27544,23.2483 -0.85768,2.7467 -1.78297,4.98868 -2.05628,4.9822 -0.27322,-0.0108 -3.19771,-1.68707 -6.49902,-3.73441 z"
       id="path4154-6"
       inkscape:connector-curvature="0"
       sodipodi:nodetypes="csssssssscc"
       inkscape:export-filename="C:\Users\iie\Desktop\rect4274.png"
       inkscape:export-xdpi="113"
       inkscape:export-ydpi="113" />
    <path
       style="fill:none;stroke:#ffffff;stroke-width:1.20546627;stroke-linecap:butt;stroke-linejoin:miter;stroke-miterlimit:4;stroke-opacity:1;stroke-dasharray:none"
       d="M 22.153945,973.55527 C 1.794446,575.3492 1053.7641,237.38466 1068.4061,453.35158"
       id="path4270-1"
       inkscape:connector-curvature="0"
       sodipodi:nodetypes="cc"
       inkscape:export-filename="C:\Users\iie\Desktop\rect4274.png"
       inkscape:export-xdpi="113"
       inkscape:export-ydpi="113" />
  </g>
</svg>
