<svg id="Layer_1" data-name="Layer 1" xmlns="http://www.w3.org/2000/svg" viewBox="0 0 1379.14 711.55"><defs><style>.cls-1{fill:#b71a1a;}.cls-2{fill:#d8c5c5;}.cls-3{fill:#2fc93a;}.cls-4{fill:#2ad825;}.cls-5{fill:#2ad132;}.cls-6{fill:#92efef;}.cls-7{fill:#bec6c6;}</style></defs><polygon class="cls-1" points="332.57 711.05 1.48 460.58 1378.63 456.65 1378.63 711.05 332.57 711.05"/><path d="M1683.41,529.87v253.4H638L308.24,533.8l1375.17-3.93m1-1L305.27,532.81l332.4,251.46H1684.41V528.86Z" transform="translate(-305.27 -72.72)"/><rect class="cls-2" x="1063.42" y="141.78" width="315.22" height="313.86"/><path d="M1683.41,215V527.86H1369.19V215h314.22m1-1H1368.19V528.86h316.22V214Z" transform="translate(-305.27 -72.72)"/><rect class="cls-3" x="210.72" y="373.96" width="211.16" height="84.13"/><path d="M726.65,447.18v83.13H516.49V447.18H726.65m1-1H515.49v85.13H727.65V446.18Z" transform="translate(-305.27 -72.72)"/><rect class="cls-4" x="696.53" y="373.96" width="211.16" height="84.13"/><path d="M1212.46,447.18v83.13H1002.3V447.18h210.16m1-1H1001.3v85.13h212.16V446.18Z" transform="translate(-305.27 -72.72)"/><rect class="cls-5" x="460.04" y="373.96" width="211.16" height="84.13"/><path d="M976,447.18v83.13H765.81V447.18H976m1-1H764.81v85.13H977V446.18Z" transform="translate(-305.27 -72.72)"/><rect class="cls-6" x="1063.42" y="213.29" width="112.27" height="92.55"/><path d="M1480.46,286.51v91.55H1369.19V286.51h111.27m1-1H1368.19v93.55h113.27V285.51Z" transform="translate(-305.27 -72.72)"/><rect class="cls-7" x="1312.43" y="0.5" width="66.2" height="140.28"/><path d="M1683.41,73.72V213H1618.2V73.72h65.21m1-1H1617.2V214h67.21V72.72Z" transform="translate(-305.27 -72.72)"/></svg>